<svg width="80" height="80" viewBox="0 0 80 80" fill="none" xmlns="http://www.w3.org/2000/svg">
<path d="M0.00012207 40C0.00012207 21.1438 0.00012207 11.7157 5.85799 5.85786C11.7159 0 21.1439 0 40.0001 0C58.8563 0 68.2844 0 74.1423 5.85786C80.0001 11.7157 80.0001 21.1438 80.0001 40C80.0001 58.8562 80.0001 68.2843 74.1423 74.1421C68.2844 80 58.8563 80 40.0001 80C21.1439 80 11.7159 80 5.85799 74.1421C0.00012207 68.2843 0.00012207 58.8562 0.00012207 40Z" fill="url(#paint0_linear)"/>
<path d="M0.500122 40C0.500122 30.5578 0.501184 23.5264 1.2279 18.1212C1.95268 12.7304 3.39099 9.03197 6.21154 6.21142C9.03209 3.39087 12.7305 1.95255 18.1213 1.22777C23.5265 0.501062 30.5579 0.5 40.0001 0.5C49.4423 0.5 56.4737 0.501062 61.8789 1.22777C67.2698 1.95255 70.9682 3.39087 73.7887 6.21142C76.6093 9.03197 78.0476 12.7304 78.7723 18.1212C79.4991 23.5264 79.5001 30.5578 79.5001 40C79.5001 49.4422 79.4991 56.4736 78.7723 61.8788C78.0476 67.2696 76.6093 70.968 73.7887 73.7886C70.9682 76.6091 67.2698 78.0474 61.8789 78.7722C56.4737 79.4989 49.4423 79.5 40.0001 79.5C30.5579 79.5 23.5265 79.4989 18.1213 78.7722C12.7305 78.0474 9.03209 76.6091 6.21154 73.7886C3.39099 70.968 1.95268 67.2696 1.2279 61.8788C0.501184 56.4736 0.500122 49.4422 0.500122 40Z" stroke="url(#paint1_radial)" stroke-opacity="0.44"/>
<path d="M51.771 40.7071C52.1616 40.3166 52.1616 39.6834 51.771 39.2929L45.4071 32.9289C45.0166 32.5384 44.3834 32.5384 43.9929 32.9289C43.6023 33.3195 43.6023 33.9526 43.9929 34.3431L49.6497 40L43.9929 45.6569C43.6023 46.0474 43.6023 46.6805 43.9929 47.0711C44.3834 47.4616 45.0166 47.4616 45.4071 47.0711L51.771 40.7071ZM28.9363 41L51.0639 41L51.0639 39L28.9363 39L28.9363 41Z" fill="#638FFF"/>
<defs>
<linearGradient id="paint0_linear" x1="113.6" y1="58.4" x2="-50.6851" y2="-3.70019" gradientUnits="userSpaceOnUse">
<stop stop-color="#7E69FF" stop-opacity="0"/>
<stop offset="1" stop-color="#4B2CD6" stop-opacity="0.48"/>
</linearGradient>
<radialGradient id="paint1_radial" cx="0" cy="0" r="1" gradientUnits="userSpaceOnUse" gradientTransform="translate(-16.7461 -12.4675) rotate(42.8558) scale(133.987 114.655)">
<stop stop-color="#5498FF"/>
<stop offset="1" stop-color="#D39AFF" stop-opacity="0"/>
</radialGradient>
</defs>
</svg>
