<svg width="32" height="36" viewBox="0 0 32 36" fill="none" xmlns="http://www.w3.org/2000/svg">
<path d="M21.3333 6.36279H10.6666C7.72107 6.36279 5.33325 8.98454 5.33325 12.2186V23.9303C5.33325 27.1644 7.72107 29.7861 10.6666 29.7861H21.3333C24.2788 29.7861 26.6666 27.1644 26.6666 23.9303V12.2186C26.6666 8.98454 24.2788 6.36279 21.3333 6.36279Z" stroke="black" stroke-width="3" stroke-linecap="round" stroke-linejoin="round"/>
<path d="M16 22.4664C18.2091 22.4664 20 20.5001 20 18.0745C20 15.6489 18.2091 13.6826 16 13.6826C13.7909 13.6826 12 15.6489 12 18.0745C12 20.5001 13.7909 22.4664 16 22.4664Z" stroke="black" stroke-width="3" stroke-linecap="round" stroke-linejoin="round"/>
<path d="M22 11.4863V11.4873" stroke="black" stroke-width="3" stroke-linecap="round" stroke-linejoin="round"/>
</svg>
