<svg width="26" height="27" viewBox="0 0 26 27" fill="none" xmlns="http://www.w3.org/2000/svg">
<path d="M7.17647 11.9463V23.3135C7.17647 23.6903 7.04013 24.0517 6.79743 24.3182C6.55474 24.5847 6.22557 24.7344 5.88235 24.7344H3.29412C2.9509 24.7344 2.62173 24.5847 2.37904 24.3182C2.13634 24.0517 2 23.6903 2 23.3135V13.3672C2 12.9903 2.13634 12.6289 2.37904 12.3625C2.62173 12.096 2.9509 11.9463 3.29412 11.9463H7.17647ZM7.17647 11.9463C8.54936 11.9463 9.86601 11.3475 10.8368 10.2816C11.8076 9.21572 12.3529 7.77008 12.3529 6.26269V4.8418C12.3529 4.0881 12.6256 3.36528 13.111 2.83234C13.5964 2.2994 14.2547 2 14.9412 2C15.6276 2 16.2859 2.2994 16.7713 2.83234C17.2567 3.36528 17.5294 4.0881 17.5294 4.8418V11.9463H21.4118C22.0982 11.9463 22.7565 12.2457 23.2419 12.7786C23.7273 13.3116 24 14.0344 24 14.7881L22.7059 21.8926C22.5198 22.7643 22.1667 23.5127 21.6999 24.0253C21.2331 24.5378 20.6778 24.7867 20.1176 24.7344H11.0588C10.0292 24.7344 9.04167 24.2853 8.31359 23.4859C7.5855 22.6864 7.17647 21.6022 7.17647 20.4717" stroke="white" stroke-opacity="0.75" stroke-width="3" stroke-linecap="round" stroke-linejoin="round"/>
</svg>
