<svg width="40" height="43" viewBox="0 0 40 43" fill="none" xmlns="http://www.w3.org/2000/svg">
<path d="M0 22.4998C0 13.0717 0 8.35762 2.92893 5.42869C5.85786 2.49976 10.5719 2.49976 20 2.49976C29.4281 2.49976 34.1421 2.49976 37.0711 5.42869C40 8.35762 40 13.0717 40 22.4998C40 31.9278 40 36.6419 37.0711 39.5708C34.1421 42.4998 29.4281 42.4998 20 42.4998C10.5719 42.4998 5.85786 42.4998 2.92893 39.5708C0 36.6419 0 31.9278 0 22.4998Z" fill="url(#paint0_linear)"/>
<path d="M0.5 22.4998C0.5 17.7716 0.501062 14.2757 0.861658 11.5937C1.22032 8.92597 1.9264 7.13832 3.28249 5.78224C4.63857 4.42616 6.42621 3.72008 9.09391 3.36141C11.776 3.00082 15.2718 2.99976 20 2.99976C24.7282 2.99976 28.224 3.00082 30.9061 3.36141C33.5738 3.72008 35.3614 4.42616 36.7175 5.78224C38.0736 7.13832 38.7797 8.92597 39.1383 11.5937C39.4989 14.2757 39.5 17.7716 39.5 22.4998C39.5 27.2279 39.4989 30.7238 39.1383 33.4059C38.7797 36.0735 38.0736 37.8612 36.7175 39.2173C35.3614 40.5734 33.5738 41.2794 30.9061 41.6381C28.224 41.9987 24.7282 41.9998 20 41.9998C15.2718 41.9998 11.776 41.9987 9.09391 41.6381C6.42621 41.2794 4.63857 40.5734 3.28249 39.2173C1.9264 37.8612 1.22032 36.0735 0.861658 33.4059C0.501062 30.7238 0.5 27.2279 0.5 22.4998Z" stroke="url(#paint1_radial)" stroke-opacity="0.44"/>
<path d="M14 21.9998C16.1667 23.6664 20.4 27.7998 20 30.9998C19.5 34.9998 23 9.99976 38.5 0.999756" stroke="#096BEF" stroke-width="2" stroke-linecap="round" stroke-linejoin="round"/>
<defs>
<linearGradient id="paint0_linear" x1="56.8" y1="31.6998" x2="-25.3426" y2="0.649659" gradientUnits="userSpaceOnUse">
<stop stop-color="#433876" stop-opacity="0"/>
<stop offset="1" stop-color="#231E39" stop-opacity="0.48"/>
</linearGradient>
<radialGradient id="paint1_radial" cx="0" cy="0" r="1" gradientUnits="userSpaceOnUse" gradientTransform="translate(-8.3731 -3.73401) rotate(42.8558) scale(66.9933 57.3275)">
<stop stop-color="#5498FF"/>
<stop offset="1" stop-color="#D39AFF" stop-opacity="0"/>
</radialGradient>
</defs>
</svg>
