<svg width="86" height="85" viewBox="0 0 86 85" fill="none" xmlns="http://www.w3.org/2000/svg">
<path d="M42.857 0.407776C66.2156 0.407776 85.238 19.2704 85.238 42.4776C85.238 65.636 66.2156 84.4987 42.857 84.4987C19.4984 84.4987 0.476074 65.636 0.476074 42.4776C0.476074 19.2704 19.4984 0.407776 42.857 0.407776ZM38.0299 25.7608C37.1299 25.7608 36.2708 25.9636 35.4526 26.3693C34.4299 26.9372 33.6118 27.8296 33.1618 28.8843C32.8754 29.6145 32.4254 31.805 32.4254 31.8455C31.9754 34.2389 31.73 38.1331 31.73 42.433C31.73 46.5341 31.9754 50.262 32.3436 52.6959C32.3845 52.7364 32.8345 55.4543 33.3254 56.3873C34.2254 58.091 35.9844 59.1457 37.8662 59.1457H38.0299C39.2571 59.1051 41.8343 58.0504 41.8343 58.0099C46.1706 56.225 54.7204 50.6676 58.1567 46.9762L58.4022 46.7328C58.8522 46.2866 59.4249 45.597 59.5476 45.4348C60.2021 44.5829 60.5294 43.5282 60.5294 42.4776C60.5294 41.2971 60.1612 40.2019 59.4658 39.3095C59.3022 39.1472 58.6885 38.4576 58.1158 37.8897C54.7613 34.32 46.007 28.4787 41.4252 26.6938C40.7298 26.4139 38.9707 25.8014 38.0299 25.7608Z" fill="white"/>
</svg>
