<svg width="42" height="40" viewBox="0 0 42 40" fill="none" xmlns="http://www.w3.org/2000/svg">
<path d="M40.5722 1.80084C40.1104 1.27558 39.5074 0.89417 38.8349 0.702091C38.1624 0.510012 37.4489 0.515362 36.7793 0.717503L36.4124 0.824436C28.2106 2.96773 20.6214 6.99363 14.2473 12.5825C12.6441 14.0451 11.1697 15.6429 9.8404 17.3582C7.31501 20.5485 6.65781 24.1644 9.35077 27.1964L9.41194 27.2635L5.37206 30.8537C5.04177 31.1473 4.84161 31.5601 4.81561 32.0013C4.78961 32.4425 4.9399 32.8759 5.23342 33.2063C5.52705 33.5366 5.93983 33.7367 6.38101 33.7627C6.82218 33.7887 7.25562 33.6384 7.58601 33.3449L11.6259 29.7547L11.6853 29.8233C14.38 32.8538 18.0566 32.623 21.5129 30.4926C23.3725 29.374 25.1324 28.0974 26.7732 26.6771C33.0723 21.0032 37.9617 13.9388 41.0533 6.04483L41.2026 5.69301C41.4821 5.05214 41.5712 4.34441 41.4594 3.65427C41.3476 2.96413 41.0396 2.32073 40.5722 1.80084ZM18.7138 22.803C18.3847 22.7836 18.0688 22.667 17.806 22.4681C17.5431 22.2692 17.3452 21.9967 17.2372 21.6853C17.1292 21.3739 17.1159 21.0374 17.1992 20.7184C17.2824 20.3995 17.4583 20.1124 17.7047 19.8934C17.9511 19.6744 18.2569 19.5334 18.5834 19.4883C18.9099 19.4431 19.2425 19.4957 19.5391 19.6396C19.8357 19.7834 20.083 20.012 20.2497 20.2964C20.4164 20.5807 20.495 20.9082 20.4756 21.2372C20.4496 21.6785 20.2494 22.0914 19.919 22.385C19.5886 22.6786 19.155 22.829 18.7138 22.803ZM23.9993 18.1058C23.6702 18.0864 23.3543 17.9698 23.0915 17.7709C22.8286 17.572 22.6307 17.2996 22.5227 16.9881C22.4147 16.6767 22.4014 16.3402 22.4846 16.0212C22.5679 15.7023 22.7438 15.4152 22.9902 15.1962C23.2366 14.9772 23.5424 14.8362 23.8689 14.7911C24.1954 14.7459 24.528 14.7985 24.8246 14.9424C25.1212 15.0862 25.3685 15.3148 25.5352 15.5992C25.7019 15.8836 25.7805 16.211 25.7611 16.54C25.7351 16.9813 25.5349 17.3942 25.2045 17.6878C24.8741 17.9814 24.4405 18.1318 23.9993 18.1058ZM29.2848 13.4086C28.9557 13.3892 28.6398 13.2727 28.3769 13.0737C28.1141 12.8748 27.9162 12.6024 27.8082 12.2909C27.7001 11.9795 27.6869 11.643 27.7701 11.3241C27.8533 11.0051 28.0293 10.718 28.2757 10.499C28.5221 10.28 28.8279 10.139 29.1544 10.0939C29.4809 10.0487 29.8135 10.1013 30.1101 10.2452C30.4067 10.389 30.654 10.6176 30.8207 10.902C30.9874 11.1864 31.066 11.5138 31.0466 11.8429C31.0206 12.2841 30.8204 12.697 30.4899 12.9906C30.1595 13.2842 29.726 13.4346 29.2848 13.4086ZM4.43804 20.3556C3.92181 20.3254 3.4166 20.1938 2.95124 19.9682C2.48589 19.7427 2.06953 19.4278 1.72594 19.0413C1.38235 18.6548 1.11827 18.2045 0.948774 17.7159C0.779281 17.2274 0.707701 16.7102 0.738122 16.194C0.802543 15.1694 1.25641 14.2081 2.00671 13.5073C5.02122 10.753 8.96006 9.23096 13.0434 9.24257C12.7078 9.52665 12.3664 9.79536 12.0334 10.0913C10.2863 11.6807 8.67863 13.4169 7.22808 15.2809C6.01278 16.7713 5.12572 18.5015 4.62488 20.3582L4.43804 20.3556ZM17.976 35.3229C19.8789 35.0444 21.7014 34.3666 23.3239 33.3341C25.3485 32.1135 27.2644 30.721 29.0503 29.1721C29.385 28.8763 29.6903 28.5687 30.0135 28.2689C29.544 32.3252 27.5694 36.0577 24.4802 38.7281C23.6969 39.391 22.6895 39.7289 21.6648 39.6725C20.6221 39.611 19.6465 39.1379 18.9527 38.3571C18.2588 37.5764 17.9035 36.552 17.965 35.5093L17.976 35.3229Z" fill="white"/>
</svg>
