<svg width="32" height="36" viewBox="0 0 32 36" fill="none" xmlns="http://www.w3.org/2000/svg">
<path d="M4 31.2499L6.2 25.6869C4.51688 23.0635 3.76356 19.856 4.08139 16.6661C4.39923 13.4762 5.76638 10.5234 7.92628 8.36166C10.0862 6.19995 12.8903 4.978 15.8125 4.92513C18.7347 4.87226 21.574 5.99211 23.7976 8.07451C26.0212 10.1569 27.4762 13.0587 27.8896 16.2353C28.303 19.412 27.6463 22.6451 26.0428 25.3279C24.4393 28.0106 21.9993 29.9587 19.1805 30.8065C16.3618 31.6542 13.3582 31.3434 10.7333 29.9323L4 31.2499" stroke="black" stroke-width="3" stroke-linecap="round" stroke-linejoin="round"/>
<path d="M12 15.1466C12 15.3408 12.0702 15.5269 12.1953 15.6642C12.3203 15.8015 12.4899 15.8786 12.6667 15.8786C12.8435 15.8786 13.013 15.8015 13.1381 15.6642C13.2631 15.5269 13.3333 15.3408 13.3333 15.1466V13.6827C13.3333 13.4885 13.2631 13.3023 13.1381 13.1651C13.013 13.0278 12.8435 12.9507 12.6667 12.9507C12.4899 12.9507 12.3203 13.0278 12.1953 13.1651C12.0702 13.3023 12 13.4885 12 13.6827V15.1466ZM12 15.1466C12 17.088 12.7024 18.9498 13.9526 20.3225C15.2028 21.6952 16.8985 22.4664 18.6666 22.4664H20C20.1768 22.4664 20.3463 22.3893 20.4714 22.252C20.5964 22.1148 20.6666 21.9286 20.6666 21.7344C20.6666 21.5403 20.5964 21.3541 20.4714 21.2169C20.3463 21.0796 20.1768 21.0025 20 21.0025H18.6666C18.4898 21.0025 18.3203 21.0796 18.1952 21.2169C18.0702 21.3541 18 21.5403 18 21.7344C18 21.9286 18.0702 22.1148 18.1952 22.252C18.3203 22.3893 18.4898 22.4664 18.6666 22.4664" stroke="black" stroke-width="3" stroke-linecap="round" stroke-linejoin="round"/>
</svg>
