<svg width="16" height="16" viewBox="0 0 16 16" fill="none" xmlns="http://www.w3.org/2000/svg">
<path d="M9.54286 9.54286C8.28572 10.84 8.19429 12.4571 8.08571 16C11.3886 16 13.6686 15.9886 14.8457 14.8457C15.9886 13.6686 16 11.28 16 8.08571C12.4571 8.2 10.84 8.28572 9.54286 9.54286ZM0 8.08571C0 11.28 0.0114286 13.6686 1.15429 14.8457C2.33143 15.9886 4.61143 16 7.91429 16C7.8 12.4571 7.71429 10.84 6.45714 9.54286C5.16 8.28572 3.54286 8.19429 0 8.08571ZM7.91429 0C4.61714 0 2.33143 0.0114286 1.15429 1.15429C0.0114286 2.33143 0 4.72 0 7.91429C3.54286 7.8 5.16 7.71429 6.45714 6.45714C7.71429 5.16 7.80572 3.54286 7.91429 0ZM9.54286 6.45714C8.28572 5.16 8.19429 3.54286 8.08571 0C11.3886 0 13.6686 0.0114286 14.8457 1.15429C15.9886 2.33143 16 4.72 16 7.91429C12.4571 7.8 10.84 7.71429 9.54286 6.45714Z" fill="white"/>
</svg>
