<svg width="270" height="270" viewBox="0 0 270 270" fill="none" xmlns="http://www.w3.org/2000/svg">
<g filter="url(#filter0_f_7003_6206)">
<circle cx="143.356" cy="144.356" r="48.5" transform="rotate(-1.02044 143.356 144.356)" fill="#3C8079"/>
</g>
<g filter="url(#filter1_b_7003_6206)">
<rect x="70" y="70" width="130" height="130" rx="37" fill="url(#paint0_linear_7003_6206)"/>
<rect x="70" y="70" width="130" height="130" rx="37" fill="black" fill-opacity="0.03"/>
<rect x="70.5" y="70.5" width="129" height="129" rx="36.5" stroke="url(#paint1_radial_7003_6206)" stroke-opacity="0.44"/>
</g>
<g clip-path="url(#clip0_7003_6206)" filter="url(#filter2_d_7003_6206)">
<path d="M137.916 118.333H132.083C131.16 118.333 130.27 118.673 129.583 119.288C128.895 119.903 128.459 120.75 128.356 121.667H125.416C124.421 121.667 123.468 122.062 122.764 122.765C122.061 123.468 121.666 124.422 121.666 125.417V147.917C121.666 148.911 122.061 149.865 122.764 150.568C123.468 151.272 124.421 151.667 125.416 151.667H144.583C145.075 151.667 145.563 151.57 146.018 151.381C146.473 151.193 146.886 150.917 147.234 150.568C147.583 150.22 147.859 149.807 148.047 149.352C148.236 148.897 148.333 148.409 148.333 147.917V125.417C148.333 124.924 148.236 124.437 148.047 123.982C147.859 123.527 147.583 123.113 147.234 122.765C146.886 122.417 146.473 122.141 146.018 121.952C145.563 121.764 145.075 121.667 144.583 121.667H141.643C141.54 120.75 141.103 119.903 140.416 119.288C139.728 118.673 138.838 118.333 137.916 118.333ZM132.083 120.833H137.916C138.248 120.833 138.565 120.965 138.8 121.199C139.034 121.434 139.166 121.752 139.166 122.083C139.166 122.415 139.034 122.733 138.8 122.967C138.565 123.202 138.248 123.333 137.916 123.333H132.083C131.751 123.333 131.433 123.202 131.199 122.967C130.964 122.733 130.833 122.415 130.833 122.083C130.833 121.752 130.964 121.434 131.199 121.199C131.433 120.965 131.751 120.833 132.083 120.833ZM143.799 129.533C144.033 129.768 144.165 130.085 144.165 130.417C144.165 130.748 144.033 131.066 143.799 131.3L140.466 134.633C140.232 134.867 139.914 134.999 139.583 134.999C139.251 134.999 138.934 134.867 138.699 134.633L137.033 132.967C136.91 132.852 136.811 132.714 136.743 132.561C136.675 132.408 136.638 132.242 136.635 132.074C136.632 131.906 136.663 131.74 136.726 131.584C136.789 131.428 136.882 131.287 137.001 131.168C137.12 131.05 137.261 130.956 137.417 130.893C137.572 130.83 137.739 130.799 137.907 130.802C138.075 130.805 138.24 130.842 138.394 130.91C138.547 130.979 138.685 131.077 138.799 131.2L139.583 131.983L142.033 129.533C142.267 129.299 142.585 129.168 142.916 129.168C143.247 129.168 143.565 129.299 143.799 129.533ZM143.799 140.467L140.466 143.8C140.232 144.034 139.914 144.166 139.583 144.166C139.251 144.166 138.934 144.034 138.699 143.8L137.033 142.133C136.91 142.019 136.811 141.881 136.743 141.728C136.675 141.574 136.638 141.409 136.635 141.241C136.632 141.073 136.663 140.906 136.726 140.751C136.789 140.595 136.882 140.454 137.001 140.335C137.12 140.216 137.261 140.123 137.417 140.06C137.572 139.997 137.739 139.966 137.907 139.969C138.075 139.972 138.24 140.009 138.394 140.077C138.547 140.145 138.685 140.244 138.799 140.367L139.583 141.15L142.033 138.7C142.147 138.577 142.285 138.479 142.438 138.41C142.592 138.342 142.757 138.305 142.925 138.302C143.093 138.299 143.26 138.33 143.415 138.393C143.571 138.456 143.712 138.55 143.831 138.668C143.95 138.787 144.043 138.928 144.106 139.084C144.169 139.24 144.2 139.406 144.197 139.574C144.194 139.742 144.157 139.908 144.089 140.061C144.021 140.214 143.922 140.352 143.799 140.467ZM126.666 132.083C126.666 131.752 126.798 131.434 127.032 131.199C127.267 130.965 127.584 130.833 127.916 130.833H133.749C134.081 130.833 134.399 130.965 134.633 131.199C134.868 131.434 134.999 131.752 134.999 132.083C134.999 132.415 134.868 132.733 134.633 132.967C134.399 133.202 134.081 133.333 133.749 133.333H127.916C127.584 133.333 127.267 133.202 127.032 132.967C126.798 132.733 126.666 132.415 126.666 132.083ZM127.916 140H133.749C134.081 140 134.399 140.132 134.633 140.366C134.868 140.601 134.999 140.919 134.999 141.25C134.999 141.582 134.868 141.9 134.633 142.134C134.399 142.368 134.081 142.5 133.749 142.5H127.916C127.584 142.5 127.267 142.368 127.032 142.134C126.798 141.9 126.666 141.582 126.666 141.25C126.666 140.919 126.798 140.601 127.032 140.366C127.267 140.132 127.584 140 127.916 140Z" fill="white"/>
</g>
<defs>
<filter id="filter0_f_7003_6206" x="22.8555" y="23.856" width="241" height="241" filterUnits="userSpaceOnUse" color-interpolation-filters="sRGB">
<feFlood flood-opacity="0" result="BackgroundImageFix"/>
<feBlend mode="normal" in="SourceGraphic" in2="BackgroundImageFix" result="shape"/>
<feGaussianBlur stdDeviation="36" result="effect1_foregroundBlur_7003_6206"/>
</filter>
<filter id="filter1_b_7003_6206" x="60" y="60" width="150" height="150" filterUnits="userSpaceOnUse" color-interpolation-filters="sRGB">
<feFlood flood-opacity="0" result="BackgroundImageFix"/>
<feGaussianBlur in="BackgroundImageFix" stdDeviation="5"/>
<feComposite in2="SourceAlpha" operator="in" result="effect1_backgroundBlur_7003_6206"/>
<feBlend mode="normal" in="SourceGraphic" in2="effect1_backgroundBlur_7003_6206" result="shape"/>
</filter>
<filter id="filter2_d_7003_6206" x="95" y="95" width="80" height="80" filterUnits="userSpaceOnUse" color-interpolation-filters="sRGB">
<feFlood flood-opacity="0" result="BackgroundImageFix"/>
<feColorMatrix in="SourceAlpha" type="matrix" values="0 0 0 0 0 0 0 0 0 0 0 0 0 0 0 0 0 0 127 0" result="hardAlpha"/>
<feOffset/>
<feGaussianBlur stdDeviation="10"/>
<feColorMatrix type="matrix" values="0 0 0 0 1 0 0 0 0 1 0 0 0 0 1 0 0 0 0.7 0"/>
<feBlend mode="normal" in2="BackgroundImageFix" result="effect1_dropShadow_7003_6206"/>
<feBlend mode="normal" in="SourceGraphic" in2="effect1_dropShadow_7003_6206" result="shape"/>
</filter>
<linearGradient id="paint0_linear_7003_6206" x1="254.6" y1="164.9" x2="-12.3636" y2="63.9872" gradientUnits="userSpaceOnUse">
<stop stop-color="#433876" stop-opacity="0"/>
<stop offset="1" stop-color="#231E39" stop-opacity="0.48"/>
</linearGradient>
<radialGradient id="paint1_radial_7003_6206" cx="0" cy="0" r="1" gradientUnits="userSpaceOnUse" gradientTransform="translate(81.5 78.5) rotate(46.8556) scale(163.781 140.151)">
<stop stop-color="#54FFC1"/>
<stop offset="1" stop-color="#9AFFE7" stop-opacity="0"/>
</radialGradient>
<clipPath id="clip0_7003_6206">
<rect width="40" height="40" fill="white" transform="translate(115 115)"/>
</clipPath>
</defs>
</svg>
