<svg width="270" height="270" viewBox="0 0 270 270" fill="none" xmlns="http://www.w3.org/2000/svg">
<g clip-path="url(#clip0_7003_6200)">
<g filter="url(#filter0_f_7003_6200)">
<circle cx="135.356" cy="150.356" r="48.5" transform="rotate(-1.02044 135.356 150.356)" fill="#A76E61"/>
</g>
<g filter="url(#filter1_b_7003_6200)">
<rect x="70" y="70" width="130" height="130" rx="37" fill="url(#paint0_linear_7003_6200)"/>
<rect x="70" y="70" width="130" height="130" rx="37" fill="black" fill-opacity="0.03"/>
<rect x="70.5" y="70.5" width="129" height="129" rx="36.5" stroke="url(#paint1_radial_7003_6200)" stroke-opacity="0.44"/>
</g>
<g filter="url(#filter2_d_7003_6200)">
<path d="M134.667 122C138.114 122 141.382 123.196 144.228 125.41C147.073 127.608 149.496 130.824 151.236 134.848C151.366 135.156 151.366 135.511 151.236 135.802C147.756 143.851 141.561 148.667 134.667 148.667H134.65C127.772 148.667 121.577 143.851 118.098 135.802C117.967 135.511 117.967 135.156 118.098 134.848C121.577 126.8 127.772 122 134.65 122H134.667ZM134.667 128.869C131.073 128.869 128.163 131.762 128.163 135.333C128.163 138.889 131.073 141.782 134.667 141.782C138.244 141.782 141.154 138.889 141.154 135.333C141.154 131.762 138.244 128.869 134.667 128.869ZM134.669 131.289C136.896 131.289 138.717 133.099 138.717 135.33C138.717 137.544 136.896 139.354 134.669 139.354C132.425 139.354 130.604 137.544 130.604 135.33C130.604 135.055 130.636 134.796 130.685 134.538H130.766C132.571 134.538 134.034 133.116 134.1 131.338C134.278 131.306 134.473 131.289 134.669 131.289Z" fill="white"/>
</g>
</g>
<defs>
<filter id="filter0_f_7003_6200" x="14.8555" y="29.856" width="241" height="241" filterUnits="userSpaceOnUse" color-interpolation-filters="sRGB">
<feFlood flood-opacity="0" result="BackgroundImageFix"/>
<feBlend mode="normal" in="SourceGraphic" in2="BackgroundImageFix" result="shape"/>
<feGaussianBlur stdDeviation="36" result="effect1_foregroundBlur_7003_6200"/>
</filter>
<filter id="filter1_b_7003_6200" x="60" y="60" width="150" height="150" filterUnits="userSpaceOnUse" color-interpolation-filters="sRGB">
<feFlood flood-opacity="0" result="BackgroundImageFix"/>
<feGaussianBlur in="BackgroundImageFix" stdDeviation="5"/>
<feComposite in2="SourceAlpha" operator="in" result="effect1_backgroundBlur_7003_6200"/>
<feBlend mode="normal" in="SourceGraphic" in2="effect1_backgroundBlur_7003_6200" result="shape"/>
</filter>
<filter id="filter2_d_7003_6200" x="95" y="95" width="80" height="80" filterUnits="userSpaceOnUse" color-interpolation-filters="sRGB">
<feFlood flood-opacity="0" result="BackgroundImageFix"/>
<feColorMatrix in="SourceAlpha" type="matrix" values="0 0 0 0 0 0 0 0 0 0 0 0 0 0 0 0 0 0 127 0" result="hardAlpha"/>
<feOffset/>
<feGaussianBlur stdDeviation="10"/>
<feColorMatrix type="matrix" values="0 0 0 0 1 0 0 0 0 1 0 0 0 0 1 0 0 0 0.7 0"/>
<feBlend mode="normal" in2="BackgroundImageFix" result="effect1_dropShadow_7003_6200"/>
<feBlend mode="normal" in="SourceGraphic" in2="effect1_dropShadow_7003_6200" result="shape"/>
</filter>
<linearGradient id="paint0_linear_7003_6200" x1="254.6" y1="164.9" x2="-12.3636" y2="63.9872" gradientUnits="userSpaceOnUse">
<stop stop-color="#433876" stop-opacity="0"/>
<stop offset="1" stop-color="#231E39" stop-opacity="0.48"/>
</linearGradient>
<radialGradient id="paint1_radial_7003_6200" cx="0" cy="0" r="1" gradientUnits="userSpaceOnUse" gradientTransform="translate(135 70) rotate(86.5373) scale(157.287 134.594)">
<stop stop-color="#FF7D54"/>
<stop offset="1" stop-color="#FFBE9A" stop-opacity="0"/>
</radialGradient>
<clipPath id="clip0_7003_6200">
<rect width="270" height="270" fill="white"/>
</clipPath>
</defs>
</svg>
