<svg width="1409" height="3985" viewBox="0 0 1409 3985" fill="none" xmlns="http://www.w3.org/2000/svg">
<g filter="url(#filter0_f_6880_6930)">
<circle cx="826.44" cy="3481.99" r="30.3973" transform="rotate(34.3593 826.44 3481.99)" fill="#3FE2CE"/>
</g>
<rect x="774.299" y="3434" width="63.393" height="63.393" rx="17.6586" transform="rotate(-10.6407 774.299 3434)" fill="url(#paint0_linear_6880_6930)"/>
<g clip-path="url(#clip0_6880_6930)" filter="url(#filter1_d_6880_6930)">
<path d="M816.664 3448.99C816.608 3449.22 816.571 3449.46 816.553 3449.7C816.389 3451.84 817.99 3453.7 820.122 3453.87C820.359 3453.88 820.59 3453.87 820.831 3453.85L820.245 3461.53C819.999 3464.76 817.95 3466.53 814.714 3466.28L807.682 3465.75C804.445 3465.5 802.687 3463.44 802.933 3460.21L803.47 3453.17C803.716 3449.94 805.767 3448.16 809.003 3448.41L816.664 3448.99ZM816.414 3454.79C816.159 3454.74 815.894 3454.84 815.725 3455.04L813.195 3457.84L810.716 3455.56C810.564 3455.43 810.377 3455.36 810.185 3455.37C809.994 3455.38 809.814 3455.47 809.688 3455.62L806.592 3459.07L806.527 3459.15C806.342 3459.44 806.389 3459.84 806.658 3460.07C806.785 3460.16 806.923 3460.23 807.085 3460.24C807.304 3460.27 807.522 3460.17 807.669 3460L810.292 3457.11L812.849 3459.35L812.93 3459.42C813.223 3459.6 813.609 3459.55 813.85 3459.29L816.871 3455.95L816.831 3455.96C817 3455.76 817.049 3455.5 816.962 3455.25C816.876 3455.01 816.659 3454.83 816.414 3454.79ZM820.734 3447.6C822 3447.69 822.949 3448.8 822.853 3450.06C822.756 3451.33 821.65 3452.28 820.384 3452.18C819.118 3452.09 818.169 3450.98 818.265 3449.71C818.362 3448.45 819.468 3447.5 820.734 3447.6Z" fill="white"/>
</g>
<g opacity="0.9" filter="url(#filter2_f_6880_6930)">
<path d="M1020.26 2366.01C861.633 2387.83 945.223 2535.36 880.883 2613.26C830.134 2674.72 822.248 2744.4 824.668 2772.81C741.179 2929.53 1375.83 2317.08 1020.26 2366.01Z" fill="url(#paint1_linear_6880_6930)"/>
</g>
<g opacity="0.3" filter="url(#filter3_f_6880_6930)">
<path d="M430.741 1963C308.05 1843.62 498.524 1854.35 609.097 1874.64C710.771 1905.86 567.064 1941.8 736.9 2008.16C906.736 2074.53 584.104 2112.23 430.741 1963Z" fill="url(#paint2_linear_6880_6930)"/>
</g>
<g filter="url(#filter4_f_6880_6930)">
<circle cx="602.432" cy="1752.62" r="19.4591" transform="rotate(12.5919 602.432 1752.62)" fill="#3688ED"/>
</g>
<path d="M620.091 1744.71C615.535 1759.47 613.256 1766.84 607.61 1768.13C601.964 1769.42 596.714 1763.76 586.213 1752.43L584.855 1750.97C574.355 1739.64 569.105 1733.98 570.814 1728.45C572.522 1722.92 580.051 1721.2 595.107 1717.77L597.055 1717.32C612.111 1713.89 619.64 1712.18 623.577 1716.42C627.515 1720.67 625.237 1728.05 620.68 1742.8L620.091 1744.71Z" fill="url(#paint3_radial_6880_6930)"/>
<g clip-path="url(#clip1_6880_6930)" filter="url(#filter5_d_6880_6930)">
<path d="M606.813 1746.1L606.267 1745.24L605.39 1743.86L607.617 1742.45C607.711 1742.39 607.789 1742.31 607.844 1742.21C607.898 1742.11 607.926 1742 607.926 1741.89C607.927 1741.77 607.898 1741.66 607.845 1741.56C607.791 1741.47 607.713 1741.38 607.618 1741.32L602.239 1737.89C602.025 1737.75 601.776 1737.68 601.522 1737.68C601.268 1737.68 601.019 1737.75 600.805 1737.89C600.59 1738.03 600.419 1738.22 600.311 1738.45C600.203 1738.68 600.163 1738.94 600.195 1739.19L601.017 1745.52C601.031 1745.63 601.073 1745.74 601.14 1745.83C601.206 1745.92 601.294 1745.99 601.395 1746.04C601.44 1746.06 601.486 1746.07 601.534 1746.08C601.707 1746.12 601.888 1746.09 602.038 1746L604.263 1744.58L605.139 1745.96L605.684 1746.82C605.781 1746.96 605.931 1747.07 606.103 1747.1C606.274 1747.14 606.453 1747.11 606.601 1747.01C606.749 1746.92 606.854 1746.77 606.894 1746.6C606.934 1746.43 606.905 1746.25 606.813 1746.1L606.813 1746.1Z" fill="white"/>
<path d="M598.202 1742.61C596.912 1742.32 595.735 1741.65 594.822 1740.7C593.909 1739.74 593.3 1738.54 593.073 1737.23C592.845 1735.93 593.009 1734.59 593.544 1733.38C594.078 1732.17 594.96 1731.14 596.076 1730.44C597.193 1729.73 598.495 1729.37 599.817 1729.4C601.139 1729.43 602.422 1729.85 603.504 1730.61C604.587 1731.37 605.419 1732.43 605.896 1733.67C606.374 1734.9 606.475 1736.25 606.186 1737.54C606.148 1737.71 606.042 1737.86 605.892 1737.96C605.742 1738.05 605.561 1738.08 605.388 1738.05C605.215 1738.01 605.064 1737.9 604.969 1737.75C604.874 1737.6 604.842 1737.42 604.881 1737.25C605.112 1736.22 605.031 1735.14 604.649 1734.15C604.267 1733.16 603.601 1732.31 602.736 1731.7C601.87 1731.1 600.843 1730.76 599.785 1730.73C598.728 1730.71 597.686 1731 596.793 1731.57C595.9 1732.13 595.195 1732.95 594.767 1733.92C594.339 1734.89 594.208 1735.96 594.39 1737C594.572 1738.04 595.059 1739.01 595.79 1739.77C596.52 1740.54 597.461 1741.07 598.494 1741.3C598.667 1741.34 598.818 1741.45 598.913 1741.6C599.008 1741.75 599.039 1741.93 599.001 1742.1C598.962 1742.27 598.856 1742.42 598.707 1742.52C598.557 1742.61 598.375 1742.65 598.202 1742.61Z" fill="white"/>
<path d="M597.589 1739.47C597.504 1739.45 597.422 1739.41 597.35 1739.36C596.811 1738.98 596.374 1738.48 596.077 1737.89C595.78 1737.3 595.633 1736.65 595.649 1735.99C595.665 1735.33 595.844 1734.68 596.169 1734.11C596.494 1733.53 596.955 1733.05 597.512 1732.69C598.07 1732.34 598.705 1732.13 599.363 1732.08C600.021 1732.03 600.681 1732.15 601.284 1732.42C601.888 1732.68 602.416 1733.09 602.822 1733.61C603.228 1734.13 603.5 1734.75 603.613 1735.4C603.63 1735.48 603.629 1735.57 603.611 1735.66C603.592 1735.75 603.557 1735.83 603.506 1735.9C603.456 1735.97 603.391 1736.04 603.317 1736.08C603.242 1736.13 603.158 1736.17 603.071 1736.18C602.983 1736.2 602.894 1736.19 602.807 1736.17C602.721 1736.15 602.639 1736.12 602.567 1736.07C602.494 1736.01 602.433 1735.95 602.387 1735.87C602.34 1735.8 602.309 1735.71 602.295 1735.62C602.22 1735.19 602.038 1734.78 601.767 1734.44C601.496 1734.09 601.144 1733.82 600.742 1733.64C600.34 1733.46 599.9 1733.39 599.462 1733.42C599.023 1733.45 598.6 1733.59 598.228 1733.83C597.857 1734.06 597.55 1734.39 597.333 1734.77C597.116 1735.15 596.998 1735.58 596.987 1736.02C596.976 1736.46 597.074 1736.9 597.271 1737.29C597.469 1737.68 597.76 1738.02 598.12 1738.27C598.247 1738.36 598.338 1738.49 598.38 1738.64C598.421 1738.79 598.41 1738.95 598.347 1739.09C598.284 1739.23 598.174 1739.35 598.036 1739.42C597.898 1739.49 597.74 1739.51 597.589 1739.47L597.589 1739.47Z" fill="white"/>
</g>
<g opacity="0.9" filter="url(#filter6_f_6880_6930)">
<path d="M1133.77 1232.6C932.427 1298.95 1006.82 1427.63 901.205 1498.48C817.899 1554.37 802.058 1649.17 804.519 1691.38C896.26 1945.17 1335.11 1166.25 1133.77 1232.6Z" fill="url(#paint4_linear_6880_6930)"/>
</g>
<g filter="url(#filter7_f_6880_6930)">
<path d="M327.456 856.394C199.471 676.267 398.163 692.463 513.507 723.077C619.568 770.182 469.661 824.397 646.824 924.533C823.988 1024.67 487.436 1081.55 327.456 856.394Z" fill="url(#paint5_linear_6880_6930)"/>
</g>
<g filter="url(#filter8_f_6880_6930)">
<circle cx="819.996" cy="550.592" r="28.5341" transform="rotate(16.9515 819.996 550.592)" fill="#3FE2CE"/>
</g>
<rect x="759.816" y="522.25" width="59.5074" height="59.5074" rx="16.5762" transform="rotate(-28.0485 759.816 522.25)" fill="url(#paint6_linear_6880_6930)"/>
<g clip-path="url(#clip2_6880_6930)" filter="url(#filter9_d_6880_6930)">
<path d="M801.969 523.775C801.985 524.002 802.018 524.224 802.069 524.442C802.524 526.406 804.481 527.626 806.436 527.172C806.654 527.122 806.858 527.048 807.068 526.962L808.7 534.006C809.386 536.966 808.047 539.125 805.079 539.813L798.63 541.307C795.661 541.995 793.509 540.645 792.823 537.686L791.326 531.227C790.638 528.259 791.975 526.092 794.944 525.404L801.969 523.775ZM803.375 529.042C803.132 529.07 802.922 529.229 802.826 529.454L801.347 532.675L798.488 531.333C798.313 531.254 798.128 531.25 797.958 531.309C797.79 531.375 797.655 531.507 797.582 531.671L795.778 535.631L795.743 535.722C795.659 536.035 795.812 536.376 796.118 536.509C796.259 536.559 796.402 536.581 796.55 536.547C796.754 536.509 796.921 536.359 797.005 536.165L798.542 532.837L801.463 534.13L801.553 534.163C801.867 534.247 802.2 534.097 802.34 533.787L804.108 529.948L804.077 529.973C804.173 529.749 804.142 529.498 803.995 529.302C803.85 529.106 803.605 529.007 803.375 529.042ZM805.223 521.384C806.384 521.115 807.545 521.839 807.814 523C808.083 524.161 807.359 525.322 806.198 525.591C805.037 525.86 803.876 525.136 803.607 523.975C803.338 522.814 804.062 521.653 805.223 521.384Z" fill="white"/>
</g>
<g filter="url(#filter10_f_6880_6930)">
<ellipse cx="581.883" cy="118.482" rx="18.0388" ry="18.0019" transform="rotate(-13.3204 581.883 118.482)" fill="#E23F61"/>
</g>
<rect width="37.5812" height="37.5812" rx="11.5491" transform="matrix(0.526516 -0.850165 0.85183 0.523819 545.113 119.259)" fill="url(#paint7_linear_6880_6930)"/>
<g clip-path="url(#clip3_6880_6930)" filter="url(#filter11_d_6880_6930)">
<path d="M569.71 107.983C570.966 107.685 572.261 107.839 573.489 108.4C574.716 108.956 575.876 109.919 576.858 111.236C576.932 111.337 576.962 111.466 576.94 111.583C576.366 114.817 574.524 117.107 572.011 117.702L572.005 117.704C569.498 118.297 566.824 117.076 564.861 114.443C564.789 114.348 564.758 114.219 564.779 114.096C565.353 110.862 567.197 108.578 569.704 107.984L569.71 107.983ZM570.302 110.486C568.993 110.796 568.181 112.102 568.49 113.404C568.796 114.7 570.107 115.503 571.417 115.193C572.721 114.884 573.532 113.579 573.225 112.283C572.917 110.981 571.606 110.177 570.302 110.486ZM570.512 111.368C571.324 111.176 572.144 111.679 572.336 112.492C572.527 113.299 572.02 114.116 571.208 114.308C570.39 114.501 569.57 113.999 569.379 113.192C569.355 113.092 569.345 112.995 569.34 112.896L569.37 112.889C570.028 112.733 570.438 112.089 570.309 111.435C570.371 111.408 570.441 111.385 570.512 111.368Z" fill="white"/>
</g>
<circle cx="741.5" cy="138.5" r="4.5" fill="url(#paint8_radial_6880_6930)"/>
<circle cx="837.5" cy="257.5" r="3.5" fill="url(#paint9_radial_6880_6930)"/>
<path d="M874.251 1534.57C877.355 1534.46 878.908 1534.41 879.525 1535.4C880.143 1536.38 879.414 1537.76 877.957 1540.5L877.493 1541.37C876.035 1544.12 875.307 1545.49 874.142 1545.53C872.978 1545.57 872.155 1544.25 870.508 1541.62L869.984 1540.78C868.337 1538.15 867.513 1536.83 868.06 1535.8C868.606 1534.77 870.158 1534.72 873.263 1534.61L874.251 1534.57Z" fill="url(#paint10_radial_6880_6930)"/>
<circle cx="756.99" cy="2304.99" r="175.817" transform="rotate(16.1486 756.99 2304.99)" stroke="url(#paint11_radial_6880_6930)" stroke-opacity="0.44" stroke-width="0.339743"/>
<path d="M654.569 2146.39C667.423 2143.99 673.85 2142.79 677.041 2146.51C680.231 2150.23 678.059 2156.4 673.714 2168.74L673.152 2170.33C668.807 2182.66 666.635 2188.83 661.815 2189.73C656.994 2190.63 652.74 2185.67 644.231 2175.74L643.131 2174.46C634.622 2164.53 630.367 2159.56 631.997 2154.94C633.626 2150.31 640.053 2149.11 652.907 2146.7L654.569 2146.39Z" fill="url(#paint12_radial_6880_6930)"/>
<g clip-path="url(#clip4_6880_6930)" filter="url(#filter12_d_6880_6930)">
<path d="M663.285 2157.24C663.126 2157.07 662.92 2156.94 662.691 2156.88C662.462 2156.82 662.219 2156.82 661.993 2156.89L661.868 2156.93C659.09 2157.69 656.527 2159.08 654.383 2161.01C653.844 2161.51 653.349 2162.06 652.904 2162.65C652.058 2163.74 651.849 2164.97 652.775 2165.99L652.796 2166.01L651.437 2167.25C651.326 2167.35 651.26 2167.49 651.252 2167.64C651.245 2167.79 651.298 2167.94 651.399 2168.05C651.5 2168.16 651.641 2168.23 651.791 2168.23C651.941 2168.24 652.088 2168.19 652.199 2168.09L653.558 2166.85L653.578 2166.87C654.505 2167.89 655.753 2167.8 656.919 2167.06C657.547 2166.68 658.14 2166.24 658.692 2165.75C660.81 2163.8 662.444 2161.38 663.465 2158.68L663.514 2158.56C663.607 2158.35 663.634 2158.11 663.594 2157.87C663.553 2157.64 663.446 2157.42 663.285 2157.24ZM655.939 2164.46C655.827 2164.46 655.719 2164.42 655.629 2164.35C655.539 2164.29 655.471 2164.19 655.433 2164.09C655.395 2163.98 655.39 2163.87 655.417 2163.76C655.444 2163.65 655.502 2163.55 655.585 2163.48C655.668 2163.4 655.772 2163.35 655.882 2163.34C655.993 2163.32 656.106 2163.34 656.208 2163.38C656.309 2163.43 656.394 2163.51 656.451 2163.61C656.509 2163.7 656.537 2163.81 656.532 2163.92C656.525 2164.07 656.458 2164.22 656.347 2164.32C656.236 2164.42 656.089 2164.47 655.939 2164.46ZM657.717 2162.85C657.605 2162.84 657.497 2162.8 657.407 2162.74C657.317 2162.67 657.249 2162.58 657.211 2162.47C657.173 2162.37 657.167 2162.25 657.194 2162.14C657.222 2162.04 657.28 2161.94 657.363 2161.86C657.446 2161.79 657.549 2161.74 657.66 2161.72C657.771 2161.7 657.884 2161.72 657.985 2161.77C658.087 2161.82 658.172 2161.89 658.229 2161.99C658.287 2162.09 658.315 2162.2 658.31 2162.31C658.302 2162.46 658.236 2162.6 658.125 2162.7C658.014 2162.8 657.867 2162.85 657.717 2162.85ZM659.495 2161.23C659.383 2161.23 659.275 2161.19 659.185 2161.12C659.095 2161.05 659.027 2160.96 658.989 2160.86C658.951 2160.75 658.945 2160.64 658.972 2160.53C658.999 2160.42 659.058 2160.32 659.141 2160.25C659.224 2160.17 659.327 2160.12 659.438 2160.11C659.549 2160.09 659.662 2160.11 659.763 2160.15C659.864 2160.2 659.949 2160.28 660.007 2160.37C660.065 2160.47 660.093 2160.58 660.087 2160.69C660.08 2160.84 660.014 2160.98 659.903 2161.08C659.791 2161.19 659.645 2161.24 659.495 2161.23ZM651.08 2163.69C650.905 2163.68 650.732 2163.63 650.574 2163.56C650.415 2163.48 650.272 2163.38 650.154 2163.25C650.036 2163.12 649.944 2162.97 649.885 2162.8C649.825 2162.64 649.799 2162.46 649.807 2162.29C649.825 2161.94 649.976 2161.61 650.228 2161.37C651.242 2160.42 652.574 2159.89 653.961 2159.88C653.848 2159.98 653.733 2160.07 653.621 2160.17C653.034 2160.72 652.494 2161.31 652.009 2161.95C651.601 2162.46 651.307 2163.05 651.144 2163.69L651.08 2163.69ZM655.736 2168.72C656.381 2168.62 656.998 2168.38 657.545 2168.02C658.228 2167.6 658.874 2167.12 659.475 2166.59C659.587 2166.49 659.69 2166.38 659.799 2166.28C659.654 2167.66 658.998 2168.93 657.958 2169.85C657.695 2170.08 657.354 2170.2 657.006 2170.18C656.651 2170.17 656.318 2170.01 656.079 2169.75C655.841 2169.48 655.716 2169.14 655.733 2168.78L655.736 2168.72Z" fill="white"/>
</g>
<circle cx="581.106" cy="2305.11" r="4.12163" transform="rotate(16.1486 581.106 2305.11)" fill="url(#paint13_radial_6880_6930)"/>
<path d="M846.976 2457.02C845.806 2454.82 845.22 2453.72 845.511 2452.86C845.615 2452.56 845.788 2452.28 846.017 2452.05C846.659 2451.41 847.902 2451.46 850.389 2451.54C852.877 2451.62 854.12 2451.67 854.718 2452.35C854.93 2452.59 855.084 2452.88 855.167 2453.19C855.399 2454.07 854.741 2455.12 853.424 2457.23C852.108 2459.35 851.449 2460.4 850.561 2460.58C850.245 2460.64 849.918 2460.63 849.606 2460.55C848.732 2460.31 848.147 2459.21 846.976 2457.02Z" fill="url(#paint14_radial_6880_6930)"/>
<path d="M849.281 2129.78C862.469 2132.94 869.063 2134.52 870.509 2139.4C871.955 2144.28 867.289 2149.2 857.957 2159.04L856.75 2160.31C847.417 2170.15 842.751 2175.07 837.806 2173.89C832.86 2172.7 830.932 2166.2 827.076 2153.2L826.577 2151.51C822.721 2138.51 820.793 2132.01 824.293 2128.32C827.792 2124.63 834.386 2126.21 847.575 2129.37L849.281 2129.78Z" fill="url(#paint15_radial_6880_6930)"/>
<g clip-path="url(#clip5_6880_6930)">
<path d="M850.243 2142.57C850.812 2144.18 850.72 2145.94 849.989 2147.48C849.257 2149.01 847.945 2150.19 846.342 2150.76C844.739 2151.33 842.976 2151.24 841.44 2150.51C839.904 2149.78 838.722 2148.46 838.153 2146.86C837.585 2145.26 837.677 2143.49 838.408 2141.96C839.14 2140.42 840.452 2139.24 842.055 2138.67C843.658 2138.1 845.421 2138.2 846.957 2138.93C848.493 2139.66 849.675 2140.97 850.243 2142.57ZM843.009 2141.85L842.841 2143.67C842.838 2143.7 842.827 2143.73 842.809 2143.76C842.791 2143.79 842.767 2143.81 842.738 2143.82L841.1 2144.63C841.067 2144.65 841.041 2144.67 841.022 2144.7C841.003 2144.73 840.994 2144.77 840.995 2144.81C840.996 2144.84 841.007 2144.88 841.027 2144.91C841.047 2144.94 841.075 2144.96 841.108 2144.97L842.788 2145.69C842.817 2145.71 842.843 2145.73 842.863 2145.75C842.882 2145.78 842.895 2145.81 842.9 2145.84L843.162 2147.65C843.184 2147.81 843.382 2147.86 843.488 2147.74L844.693 2146.37C844.714 2146.35 844.741 2146.33 844.771 2146.32C844.801 2146.31 844.834 2146.3 844.865 2146.31L846.667 2146.62C846.824 2146.64 846.941 2146.47 846.86 2146.34L845.924 2144.77C845.908 2144.74 845.898 2144.71 845.898 2144.68C845.897 2144.64 845.904 2144.61 845.919 2144.58L846.77 2142.96C846.786 2142.93 846.793 2142.9 846.79 2142.86C846.787 2142.83 846.774 2142.79 846.752 2142.76C846.73 2142.74 846.701 2142.71 846.667 2142.7C846.633 2142.69 846.597 2142.69 846.562 2142.7L844.779 2143.1C844.748 2143.11 844.716 2143.1 844.685 2143.1C844.655 2143.09 844.627 2143.07 844.604 2143.05L843.327 2141.74C843.302 2141.71 843.271 2141.7 843.236 2141.69C843.201 2141.68 843.165 2141.68 843.132 2141.69C843.098 2141.71 843.069 2141.73 843.047 2141.76C843.025 2141.78 843.011 2141.82 843.008 2141.85L843.009 2141.85ZM846.699 2151.77C848.141 2151.26 849.392 2150.32 850.281 2149.08L851.623 2152.86C851.655 2152.95 851.662 2153.05 851.642 2153.15C851.622 2153.24 851.575 2153.33 851.508 2153.4C851.441 2153.47 851.356 2153.53 851.261 2153.55C851.166 2153.58 851.066 2153.58 850.972 2153.55L847.057 2152.78L844.504 2155.85C844.448 2155.93 844.37 2155.99 844.28 2156.03C844.191 2156.07 844.092 2156.08 843.994 2156.07C843.897 2156.05 843.805 2156.02 843.729 2155.95C843.653 2155.89 843.596 2155.81 843.563 2155.72L842.221 2151.93C843.695 2152.34 845.259 2152.28 846.699 2151.77Z" fill="white"/>
</g>
<circle cx="614.5" cy="2931.5" r="4.5" fill="url(#paint16_radial_6880_6930)"/>
<path d="M598.088 3513.78C601.739 3511.67 603.565 3510.61 605.034 3511.06C605.558 3511.22 606.038 3511.49 606.436 3511.87C607.555 3512.92 607.555 3515.03 607.555 3519.24C607.555 3523.46 607.555 3525.57 606.436 3526.62C606.038 3526.99 605.558 3527.27 605.034 3527.43C603.565 3527.87 601.739 3526.82 598.088 3524.71C594.436 3522.6 592.61 3521.55 592.26 3520.05C592.135 3519.52 592.135 3518.97 592.26 3518.43C592.61 3516.94 594.436 3515.89 598.088 3513.78Z" fill="url(#paint17_radial_6880_6930)"/>
<defs>
<filter id="filter0_f_6880_6930" x="748.79" y="3404.34" width="155.298" height="155.298" filterUnits="userSpaceOnUse" color-interpolation-filters="sRGB">
<feFlood flood-opacity="0" result="BackgroundImageFix"/>
<feBlend mode="normal" in="SourceGraphic" in2="BackgroundImageFix" result="shape"/>
<feGaussianBlur stdDeviation="23.6243" result="effect1_foregroundBlur_6880_6930"/>
</filter>
<filter id="filter1_d_6880_6930" x="791.424" y="3437.11" width="42.7198" height="42.7193" filterUnits="userSpaceOnUse" color-interpolation-filters="sRGB">
<feFlood flood-opacity="0" result="BackgroundImageFix"/>
<feColorMatrix in="SourceAlpha" type="matrix" values="0 0 0 0 0 0 0 0 0 0 0 0 0 0 0 0 0 0 127 0" result="hardAlpha"/>
<feOffset dy="1.90904"/>
<feGaussianBlur stdDeviation="4.53396"/>
<feColorMatrix type="matrix" values="0 0 0 0 1 0 0 0 0 1 0 0 0 0 1 0 0 0 0.77 0"/>
<feBlend mode="overlay" in2="BackgroundImageFix" result="effect1_dropShadow_6880_6930"/>
<feBlend mode="normal" in="SourceGraphic" in2="effect1_dropShadow_6880_6930" result="shape"/>
</filter>
<filter id="filter2_f_6880_6930" x="709.992" y="2256.2" width="526.383" height="649.363" filterUnits="userSpaceOnUse" color-interpolation-filters="sRGB">
<feFlood flood-opacity="0" result="BackgroundImageFix"/>
<feBlend mode="normal" in="SourceGraphic" in2="BackgroundImageFix" result="shape"/>
<feGaussianBlur stdDeviation="53.5099" result="effect1_foregroundBlur_6880_6930"/>
</filter>
<filter id="filter3_f_6880_6930" x="307.774" y="1778.77" width="560.452" height="370.908" filterUnits="userSpaceOnUse" color-interpolation-filters="sRGB">
<feFlood flood-opacity="0" result="BackgroundImageFix"/>
<feBlend mode="normal" in="SourceGraphic" in2="BackgroundImageFix" result="shape"/>
<feGaussianBlur stdDeviation="41.6129" result="effect1_foregroundBlur_6880_6930"/>
</filter>
<filter id="filter4_f_6880_6930" x="554.081" y="1704.27" width="96.7031" height="96.7019" filterUnits="userSpaceOnUse" color-interpolation-filters="sRGB">
<feFlood flood-opacity="0" result="BackgroundImageFix"/>
<feBlend mode="normal" in="SourceGraphic" in2="BackgroundImageFix" result="shape"/>
<feGaussianBlur stdDeviation="14.4438" result="effect1_foregroundBlur_6880_6930"/>
</filter>
<filter id="filter5_d_6880_6930" x="583.069" y="1720.07" width="35.2089" height="35.2101" filterUnits="userSpaceOnUse" color-interpolation-filters="sRGB">
<feFlood flood-opacity="0" result="BackgroundImageFix"/>
<feColorMatrix in="SourceAlpha" type="matrix" values="0 0 0 0 0 0 0 0 0 0 0 0 0 0 0 0 0 0 127 0" result="hardAlpha"/>
<feOffset/>
<feGaussianBlur stdDeviation="4.01218"/>
<feColorMatrix type="matrix" values="0 0 0 0 1 0 0 0 0 1 0 0 0 0 1 0 0 0 0.7 0"/>
<feBlend mode="normal" in2="BackgroundImageFix" result="effect1_dropShadow_6880_6930"/>
<feBlend mode="normal" in="SourceGraphic" in2="effect1_dropShadow_6880_6930" result="shape"/>
</filter>
<filter id="filter6_f_6880_6930" x="637.057" y="1061.34" width="716.206" height="848.289" filterUnits="userSpaceOnUse" color-interpolation-filters="sRGB">
<feFlood flood-opacity="0" result="BackgroundImageFix"/>
<feBlend mode="normal" in="SourceGraphic" in2="BackgroundImageFix" result="shape"/>
<feGaussianBlur stdDeviation="83.613" result="effect1_foregroundBlur_6880_6930"/>
</filter>
<filter id="filter7_f_6880_6930" x="183.494" y="601.494" width="616.012" height="513.498" filterUnits="userSpaceOnUse" color-interpolation-filters="sRGB">
<feFlood flood-opacity="0" result="BackgroundImageFix"/>
<feBlend mode="normal" in="SourceGraphic" in2="BackgroundImageFix" result="shape"/>
<feGaussianBlur stdDeviation="51.253" result="effect1_foregroundBlur_6880_6930"/>
</filter>
<filter id="filter8_f_6880_6930" x="747.103" y="477.697" width="145.787" height="145.788" filterUnits="userSpaceOnUse" color-interpolation-filters="sRGB">
<feFlood flood-opacity="0" result="BackgroundImageFix"/>
<feBlend mode="normal" in="SourceGraphic" in2="BackgroundImageFix" result="shape"/>
<feGaussianBlur stdDeviation="22.1763" result="effect1_foregroundBlur_6880_6930"/>
</filter>
<filter id="filter9_d_6880_6930" x="779.209" y="512.025" width="42.8289" height="42.8284" filterUnits="userSpaceOnUse" color-interpolation-filters="sRGB">
<feFlood flood-opacity="0" result="BackgroundImageFix"/>
<feColorMatrix in="SourceAlpha" type="matrix" values="0 0 0 0 0 0 0 0 0 0 0 0 0 0 0 0 0 0 127 0" result="hardAlpha"/>
<feOffset dy="1.79202"/>
<feGaussianBlur stdDeviation="4.25605"/>
<feColorMatrix type="matrix" values="0 0 0 0 1 0 0 0 0 1 0 0 0 0 1 0 0 0 0.77 0"/>
<feBlend mode="overlay" in2="BackgroundImageFix" result="effect1_dropShadow_6880_6930"/>
<feBlend mode="normal" in="SourceGraphic" in2="effect1_dropShadow_6880_6930" result="shape"/>
</filter>
<filter id="filter10_f_6880_6930" x="532.94" y="69.5719" width="97.8855" height="97.8193" filterUnits="userSpaceOnUse" color-interpolation-filters="sRGB">
<feFlood flood-opacity="0" result="BackgroundImageFix"/>
<feBlend mode="normal" in="SourceGraphic" in2="BackgroundImageFix" result="shape"/>
<feGaussianBlur stdDeviation="15.4509" result="effect1_foregroundBlur_6880_6930"/>
</filter>
<filter id="filter11_d_6880_6930" x="555.913" y="99.1448" width="29.8925" height="29.8928" filterUnits="userSpaceOnUse" color-interpolation-filters="sRGB">
<feFlood flood-opacity="0" result="BackgroundImageFix"/>
<feColorMatrix in="SourceAlpha" type="matrix" values="0 0 0 0 0 0 0 0 0 0 0 0 0 0 0 0 0 0 127 0" result="hardAlpha"/>
<feOffset dy="1.24855"/>
<feGaussianBlur stdDeviation="2.96532"/>
<feColorMatrix type="matrix" values="0 0 0 0 1 0 0 0 0 1 0 0 0 0 1 0 0 0 0.77 0"/>
<feBlend mode="overlay" in2="BackgroundImageFix" result="effect1_dropShadow_6880_6930"/>
<feBlend mode="normal" in="SourceGraphic" in2="effect1_dropShadow_6880_6930" result="shape"/>
</filter>
<filter id="filter12_d_6880_6930" x="642.652" y="2149.45" width="27.8124" height="27.8121" filterUnits="userSpaceOnUse" color-interpolation-filters="sRGB">
<feFlood flood-opacity="0" result="BackgroundImageFix"/>
<feColorMatrix in="SourceAlpha" type="matrix" values="0 0 0 0 0 0 0 0 0 0 0 0 0 0 0 0 0 0 127 0" result="hardAlpha"/>
<feOffset/>
<feGaussianBlur stdDeviation="3.39743"/>
<feColorMatrix type="matrix" values="0 0 0 0 1 0 0 0 0 1 0 0 0 0 1 0 0 0 0.7 0"/>
<feBlend mode="normal" in2="BackgroundImageFix" result="effect1_dropShadow_6880_6930"/>
<feBlend mode="normal" in="SourceGraphic" in2="effect1_dropShadow_6880_6930" result="shape"/>
</filter>
<linearGradient id="paint0_linear_6880_6930" x1="802.615" y1="3429.48" x2="825.403" y2="3498.09" gradientUnits="userSpaceOnUse">
<stop stop-color="#2BFFCC"/>
<stop offset="0.125" stop-color="#41FFAF"/>
<stop offset="1" stop-color="#48FFD3" stop-opacity="0"/>
</linearGradient>
<linearGradient id="paint1_linear_6880_6930" x1="890.386" y1="2542.47" x2="994.896" y2="2606.25" gradientUnits="userSpaceOnUse">
<stop stop-color="#FF34C6"/>
<stop offset="1" stop-color="#1E41BD" stop-opacity="0.84"/>
</linearGradient>
<linearGradient id="paint2_linear_6880_6930" x1="588" y1="1862" x2="588" y2="2066.46" gradientUnits="userSpaceOnUse">
<stop stop-color="#FF3A46"/>
<stop offset="1" stop-color="#5F6FFF" stop-opacity="0.22"/>
</linearGradient>
<radialGradient id="paint3_radial_6880_6930" cx="0" cy="0" r="1" gradientUnits="userSpaceOnUse" gradientTransform="translate(573.408 1734.56) rotate(-1.79054) scale(53.4003)">
<stop stop-color="#3592FF"/>
<stop offset="1" stop-color="#4299FF" stop-opacity="0.23"/>
</radialGradient>
<linearGradient id="paint4_linear_6880_6930" x1="919.661" y1="1403.11" x2="1082.04" y2="1560.6" gradientUnits="userSpaceOnUse">
<stop stop-color="#FF34C6"/>
<stop offset="1" stop-color="#1E41BD" stop-opacity="0.84"/>
</linearGradient>
<linearGradient id="paint5_linear_6880_6930" x1="491.5" y1="704" x2="491.5" y2="1012.49" gradientUnits="userSpaceOnUse">
<stop stop-color="#FF3A46"/>
<stop offset="1" stop-color="#5F6FFF" stop-opacity="0.22"/>
</linearGradient>
<linearGradient id="paint6_linear_6880_6930" x1="786.397" y1="518.002" x2="807.788" y2="582.411" gradientUnits="userSpaceOnUse">
<stop stop-color="#2BFFCC"/>
<stop offset="0.125" stop-color="#41FFAF"/>
<stop offset="1" stop-color="#48FFD3" stop-opacity="0"/>
</linearGradient>
<linearGradient id="paint7_linear_6880_6930" x1="16.7865" y1="-2.68297" x2="30.2961" y2="37.9945" gradientUnits="userSpaceOnUse">
<stop stop-color="#FF2B44"/>
<stop offset="0.125" stop-color="#FF4158"/>
<stop offset="1" stop-color="#FF4869" stop-opacity="0"/>
</linearGradient>
<radialGradient id="paint8_radial_6880_6930" cx="0" cy="0" r="1" gradientUnits="userSpaceOnUse" gradientTransform="translate(739.865 136.093) rotate(53.0806) scale(7.44963)">
<stop stop-color="#384CFF"/>
<stop offset="1" stop-color="#8976FF" stop-opacity="0"/>
</radialGradient>
<radialGradient id="paint9_radial_6880_6930" cx="0" cy="0" r="1" gradientUnits="userSpaceOnUse" gradientTransform="translate(836.229 255.628) rotate(53.0806) scale(5.79416)">
<stop stop-color="#FFF738"/>
<stop offset="1" stop-color="#FFC076" stop-opacity="0"/>
</radialGradient>
<radialGradient id="paint10_radial_6880_6930" cx="0" cy="0" r="1" gradientUnits="userSpaceOnUse" gradientTransform="translate(875.487 1544.38) rotate(-112.198) scale(14.0563)">
<stop stop-color="#35FFDB"/>
<stop offset="0.979167" stop-color="#119098" stop-opacity="0.59"/>
</radialGradient>
<radialGradient id="paint11_radial_6880_6930" cx="0" cy="0" r="1" gradientUnits="userSpaceOnUse" gradientTransform="translate(705.703 2074.1) rotate(74.6591) scale(447.776 383.171)">
<stop stop-color="#5498FF"/>
<stop offset="1" stop-color="#D39AFF" stop-opacity="0"/>
</radialGradient>
<radialGradient id="paint12_radial_6880_6930" cx="0" cy="0" r="1" gradientUnits="userSpaceOnUse" gradientTransform="translate(663.436 2195.73) rotate(-128.361) scale(53.831)">
<stop stop-color="#57FFB8" stop-opacity="0"/>
<stop offset="0.451969" stop-color="#39FBCC" stop-opacity="0.42"/>
<stop offset="1" stop-color="#3EE7A7"/>
</radialGradient>
<radialGradient id="paint13_radial_6880_6930" cx="0" cy="0" r="1" gradientUnits="userSpaceOnUse" gradientTransform="translate(579.608 2302.9) rotate(53.0806) scale(6.82326)">
<stop stop-color="#3DBEA2"/>
<stop offset="1" stop-color="#FCFF76" stop-opacity="0"/>
</radialGradient>
<radialGradient id="paint14_radial_6880_6930" cx="0" cy="0" r="1" gradientUnits="userSpaceOnUse" gradientTransform="translate(853.906 2451.97) rotate(131.761) scale(12.1185)">
<stop stop-color="#FF35C6"/>
<stop offset="0.979167" stop-color="#981152" stop-opacity="0.59"/>
</radialGradient>
<radialGradient id="paint15_radial_6880_6930" cx="0" cy="0" r="1" gradientUnits="userSpaceOnUse" gradientTransform="translate(836.805 2180.25) rotate(-104.286) scale(55.8296)">
<stop stop-color="#FF576B" stop-opacity="0"/>
<stop offset="0.451969" stop-color="#FB3950" stop-opacity="0.42"/>
<stop offset="1" stop-color="#FB3950"/>
</radialGradient>
<radialGradient id="paint16_radial_6880_6930" cx="0" cy="0" r="1" gradientUnits="userSpaceOnUse" gradientTransform="translate(612.865 2929.09) rotate(53.0806) scale(7.44963)">
<stop stop-color="#FFF738"/>
<stop offset="1" stop-color="#FFC076" stop-opacity="0"/>
</radialGradient>
<radialGradient id="paint17_radial_6880_6930" cx="0" cy="0" r="1" gradientUnits="userSpaceOnUse" gradientTransform="translate(607.03 3525.22) rotate(-140.179) scale(20.5331)">
<stop stop-color="#35FFDB"/>
<stop offset="0.979167" stop-color="#119098" stop-opacity="0.59"/>
</radialGradient>
<clipPath id="clip0_6880_6930">
<rect width="22.9084" height="22.9084" fill="white" transform="translate(802.234 3444.27) rotate(4.35931)"/>
</clipPath>
<clipPath id="clip1_6880_6930">
<rect width="16.0487" height="16.0487" fill="white" transform="translate(594.592 1728.1) rotate(12.5919)"/>
</clipPath>
<clipPath id="clip2_6880_6930">
<rect width="21.5043" height="21.5043" fill="white" transform="translate(787.721 523.6) rotate(-13.0485)"/>
</clipPath>
<clipPath id="clip3_6880_6930">
<rect width="14.9827" height="14.9827" fill="white" transform="translate(561.844 107.279) rotate(-13.3204)"/>
</clipPath>
<clipPath id="clip4_6880_6930">
<rect width="13.5897" height="13.5897" fill="white" transform="translate(650.096 2156.25) rotate(2.73379)"/>
</clipPath>
<clipPath id="clip5_6880_6930">
<rect width="21.3794" height="21.3794" fill="white" transform="translate(831.264 2140.23) rotate(-19.5258)"/>
</clipPath>
</defs>
</svg>
