<svg width="239" height="43" viewBox="0 0 239 43" fill="none" xmlns="http://www.w3.org/2000/svg">
<g clip-path="url(#clip0_6840_6567)">
<path d="M78.9797 34.7259C77.3392 34.7259 75.8833 34.3673 74.6119 33.6501C73.3406 32.933 72.3358 31.9492 71.5976 30.6992C70.8593 29.4288 70.4902 27.9944 70.4902 26.396C70.4902 24.7771 70.8593 23.3427 71.5976 22.0927C72.3358 20.8427 73.3406 19.8692 74.6119 19.1726C75.8833 18.4553 77.3392 18.0968 78.9797 18.0968C80.5996 18.0968 82.0453 18.4553 83.3166 19.1726C84.6086 19.8692 85.6133 20.8427 86.331 22.0927C87.0692 23.3223 87.4383 24.7566 87.4383 26.396C87.4383 28.0148 87.0692 29.4492 86.331 30.6992C85.6133 31.9492 84.6086 32.933 83.3166 33.6501C82.0453 34.3673 80.5996 34.7259 78.9797 34.7259ZM78.9797 32.1439C80.0254 32.1439 80.9584 31.9083 81.7788 31.4369C82.6195 30.9657 83.2757 30.2996 83.7473 29.4391C84.219 28.5579 84.4547 27.5436 84.4547 26.396C84.4547 25.2279 84.219 24.2239 83.7473 23.3836C83.2757 22.523 82.6195 21.857 81.7788 21.3857C80.9584 20.9145 80.0254 20.6788 78.9797 20.6788C77.9339 20.6788 77.0009 20.9145 76.1807 21.3857C75.3605 21.857 74.7043 22.523 74.2121 23.3836C73.72 24.2239 73.4739 25.2279 73.4739 26.396C73.4739 27.5436 73.72 28.5579 74.2121 29.4391C74.7043 30.2996 75.3605 30.9657 76.1807 31.4369C77.0009 31.9083 77.9339 32.1439 78.9797 32.1439Z" fill="white"/>
<path d="M98.0129 34.7259C96.3519 34.7259 94.8653 34.3673 93.5529 33.6501C92.2611 32.933 91.2459 31.9492 90.5077 30.6992C89.7695 29.4492 89.4004 28.0148 89.4004 26.396C89.4004 24.7771 89.7695 23.3427 90.5077 22.0927C91.2459 20.8427 92.2611 19.8692 93.5529 19.1726C94.8653 18.4553 96.3519 18.0968 98.0129 18.0968C99.4893 18.0968 100.802 18.3938 101.95 18.9881C103.119 19.5619 104.021 20.4226 104.657 21.5701L102.411 23.0148C101.878 22.2157 101.222 21.6316 100.443 21.2627C99.6841 20.8734 98.8639 20.6788 97.9821 20.6788C96.9159 20.6788 95.9623 20.9145 95.1216 21.3857C94.2808 21.857 93.6144 22.523 93.1222 23.3836C92.6302 24.2239 92.384 25.2279 92.384 26.396C92.384 27.564 92.6302 28.5783 93.1222 29.4391C93.6144 30.2996 94.2808 30.9657 95.1216 31.4369C95.9623 31.9083 96.9159 32.1439 97.9821 32.1439C98.8639 32.1439 99.6841 31.9595 100.443 31.5907C101.222 31.2014 101.878 30.6071 102.411 29.8079L104.657 31.2218C104.021 32.3489 103.119 33.2199 101.95 33.8346C100.802 34.4288 99.4893 34.7259 98.0129 34.7259Z" fill="white"/>
<path d="M176.503 34.5413V18.2501H179.456V34.5413H176.503ZM177.981 15.1149C177.406 15.1149 176.925 14.9306 176.535 14.5617C176.166 14.1928 175.98 13.742 175.98 13.2092C175.98 12.6559 176.166 12.1948 176.535 11.826C176.925 11.4571 177.406 11.2727 177.981 11.2727C178.554 11.2727 179.026 11.4571 179.395 11.826C179.785 12.1743 179.979 12.6149 179.979 13.1477C179.979 13.701 179.796 14.1723 179.427 14.5617C179.056 14.9306 178.575 15.1149 177.981 15.1149Z" fill="white"/>
<path d="M230.031 34.7259C228.39 34.7259 226.935 34.3673 225.664 33.6501C224.393 32.933 223.387 31.9492 222.649 30.6992C221.911 29.4288 221.541 27.9944 221.541 26.396C221.541 24.7771 221.911 23.3427 222.649 22.0927C223.387 20.8427 224.393 19.8692 225.664 19.1726C226.935 18.4553 228.39 18.0968 230.031 18.0968C231.651 18.0968 233.097 18.4553 234.368 19.1726C235.66 19.8692 236.665 20.8427 237.382 22.0927C238.12 23.3223 238.489 24.7566 238.489 26.396C238.489 28.0148 238.12 29.4492 237.382 30.6992C236.665 31.9492 235.66 32.933 234.368 33.6501C233.097 34.3673 231.651 34.7259 230.031 34.7259ZM230.031 32.1439C231.077 32.1439 232.009 31.9083 232.831 31.4369C233.67 30.9657 234.328 30.2996 234.798 29.4391C235.27 28.5579 235.506 27.5436 235.506 26.396C235.506 25.2279 235.27 24.2239 234.798 23.3836C234.328 22.523 233.67 21.857 232.831 21.3857C232.009 20.9145 231.077 20.6788 230.031 20.6788C228.986 20.6788 228.052 20.9145 227.232 21.3857C226.412 21.857 225.755 22.523 225.263 23.3836C224.772 24.2239 224.526 25.2279 224.526 26.396C224.526 27.5436 224.772 28.5579 225.263 29.4391C225.755 30.2996 226.412 30.9657 227.232 31.4369C228.052 31.9083 228.986 32.1439 230.031 32.1439Z" fill="white"/>
<path fill-rule="evenodd" clip-rule="evenodd" d="M50.6953 34.5415V13.025H59.0924C60.9789 13.025 62.5886 13.3221 63.9216 13.9164C65.2544 14.5106 66.2796 15.3713 66.9974 16.4983C67.7151 17.6255 68.0739 18.9676 68.0739 20.525C68.0739 22.0823 67.7151 23.4246 66.9974 24.5516C66.2796 25.6582 65.2544 26.5086 63.9216 27.1029C63.7317 27.1875 63.5363 27.2662 63.3353 27.3387L68.443 34.5415H65.0903L60.4597 27.9382C60.0214 27.9757 59.5656 27.9943 59.0924 27.9943H53.7711V34.5415H50.6953ZM63.4602 24.1213C62.4553 24.9615 60.9687 25.3816 59.0001 25.3816H53.7711V15.6991H59.0001C60.9687 15.6991 62.4553 16.1193 63.4602 16.9594C64.4855 17.7995 64.9981 18.988 64.9981 20.525C64.9981 22.0619 64.4855 23.2607 63.4602 24.1213Z" fill="white"/>
<path fill-rule="evenodd" clip-rule="evenodd" d="M110.607 34.5414V30.0901L113.98 26.941L120.112 34.5414H123.741L116.206 24.9867L123.064 18.2502H119.496L110.607 26.3763V11.7339H107.654V34.5414H110.607Z" fill="white"/>
<path fill-rule="evenodd" clip-rule="evenodd" d="M132.561 34.7259C130.818 34.7259 129.28 34.3673 127.947 33.6501C126.635 32.933 125.61 31.9492 124.871 30.6992C124.154 29.4492 123.795 28.0148 123.795 26.396C123.795 24.7771 124.144 23.3427 124.841 22.0927C125.558 20.8427 126.533 19.8692 127.763 19.1726C129.014 18.4553 130.418 18.0968 131.977 18.0968C133.556 18.0968 134.95 18.4452 136.16 19.1418C137.37 19.8385 138.313 20.8222 138.99 22.0927C139.687 23.3427 140.036 24.8078 140.036 26.4882C140.036 26.6112 140.025 26.7547 140.005 26.9186C140.005 27.0825 139.994 27.2362 139.974 27.3795H126.737C126.832 28.1377 127.061 28.8345 127.424 29.4698C127.937 30.3099 128.645 30.9657 129.547 31.4369C130.449 31.9083 131.485 32.1439 132.653 32.1439C133.617 32.1439 134.489 31.98 135.268 31.6522C136.068 31.3242 136.765 30.8325 137.36 30.1768L138.99 32.0825C138.252 32.9431 137.329 33.5989 136.221 34.0497C135.135 34.5005 133.915 34.7259 132.561 34.7259ZM134.714 21.2935C135.514 21.7443 136.139 22.3796 136.591 23.1993C136.933 23.8208 137.139 24.5073 137.21 25.2586H126.731C126.818 24.5147 127.028 23.8384 127.363 23.23C127.814 22.3897 128.44 21.7443 129.239 21.2935C130.039 20.8222 130.951 20.5865 131.977 20.5865C133.023 20.5865 133.935 20.8222 134.714 21.2935Z" fill="white"/>
<path fill-rule="evenodd" clip-rule="evenodd" d="M145.305 33.4042C146.208 34.2854 147.479 34.7259 149.119 34.7259C149.797 34.7259 150.442 34.6338 151.057 34.4493C151.692 34.2649 152.236 33.978 152.687 33.5887L151.764 31.4677C151.15 31.98 150.381 32.2361 149.458 32.2361C148.638 32.2361 148.002 32.0006 147.551 31.5292C147.12 31.0579 146.905 30.3817 146.905 29.5005V20.6787H151.58V18.2503H146.905V14.6848H143.952V18.2503H141.184V20.6787H143.952V29.6234C143.952 31.2629 144.403 32.523 145.305 33.4042Z" fill="white"/>
<path fill-rule="evenodd" clip-rule="evenodd" d="M152.812 13.0249L162.286 34.5414H165.332L174.774 13.0249H171.698L163.889 30.714L156.135 13.0249H152.812Z" fill="white"/>
<path fill-rule="evenodd" clip-rule="evenodd" d="M186.971 33.6807C188.222 34.3775 189.636 34.7258 191.215 34.7258C192.63 34.7258 193.892 34.4184 194.999 33.8037C195.798 33.345 196.475 32.7312 197.029 31.9626V34.5414H199.858V11.7339H196.906V20.7285C196.357 20.0124 195.701 19.4426 194.938 19.0187C193.831 18.404 192.589 18.0966 191.215 18.0966C189.636 18.0966 188.222 18.4451 186.971 19.1417C185.741 19.8384 184.767 20.8118 184.048 22.0618C183.331 23.2914 182.973 24.7361 182.973 26.3958C182.973 28.0558 183.331 29.5106 184.048 30.7606C184.767 32.0106 185.741 32.984 186.971 33.6807ZM194.23 31.4368C193.409 31.9082 192.486 32.1438 191.462 32.1438C190.416 32.1438 189.482 31.9082 188.662 31.4368C187.842 30.9656 187.187 30.2995 186.694 29.4389C186.202 28.5578 185.956 27.5434 185.956 26.3958C185.956 25.2278 186.202 24.2237 186.694 23.3835C187.187 22.5229 187.842 21.8569 188.662 21.3856C189.482 20.9143 190.416 20.6786 191.462 20.6786C192.486 20.6786 193.409 20.9143 194.23 21.3856C195.071 21.8569 195.726 22.5229 196.198 23.3835C196.691 24.2237 196.936 25.2278 196.936 26.3958C196.936 27.5434 196.691 28.5578 196.198 29.4389C195.726 30.2995 195.071 30.9656 194.23 31.4368Z" fill="white"/>
<path fill-rule="evenodd" clip-rule="evenodd" d="M212.091 34.7259C210.348 34.7259 208.809 34.3673 207.477 33.6501C206.164 32.933 205.139 31.9492 204.401 30.6992C203.683 29.4492 203.324 28.0148 203.324 26.396C203.324 24.7771 203.672 23.3427 204.37 22.0927C205.088 20.8427 206.062 19.8692 207.292 19.1726C208.543 18.4553 209.948 18.0968 211.505 18.0968C213.084 18.0968 214.48 18.4452 215.689 19.1418C216.899 19.8385 217.842 20.8222 218.519 22.0927C219.216 23.3427 219.564 24.8078 219.564 26.4882C219.564 26.6112 219.554 26.7547 219.534 26.9186C219.534 27.0825 219.524 27.2362 219.503 27.3795H206.265C206.361 28.1377 206.591 28.8345 206.954 29.4698C207.466 30.3099 208.174 30.9657 209.077 31.4369C209.979 31.9083 211.014 32.1439 212.182 32.1439C213.147 32.1439 214.018 31.98 214.798 31.6522C215.597 31.3242 216.294 30.8325 216.889 30.1768L218.519 32.0825C217.781 32.9431 216.858 33.5989 215.751 34.0497C214.663 34.5005 213.444 34.7259 212.091 34.7259ZM214.244 21.2935C215.043 21.7443 215.669 22.3796 216.12 23.1993C216.462 23.8208 216.668 24.5073 216.74 25.2586H206.261C206.346 24.5147 206.557 23.8384 206.893 23.23C207.344 22.3897 207.968 21.7443 208.769 21.2935C209.568 20.8222 210.481 20.5865 211.505 20.5865C212.551 20.5865 213.464 20.8222 214.244 21.2935Z" fill="white"/>
<path d="M10.9074 23.9038C15.394 18.8433 21.4271 14.5046 24.3694 12.8899C20.7027 15.7161 22.6905 16.5173 23.9547 17.2974C25.1127 18.012 26.7256 18.9499 30.3786 20.9907C34.0315 23.0317 33.0854 25.0232 32.1557 25.7638C24.0507 30.4866 7.38044 40.2015 5.53829 41.278C3.2356 42.6235 2.35748 42.5454 1.22565 41.824C0.32018 41.2468 0.58288 39.2919 0.827411 38.3865C2.48449 33.4187 5.29917 30.2294 10.9074 23.9038Z" fill="white"/>
<path d="M3.96165 21.6463C7.64116 20.8332 18.5568 14.8451 23.5547 11.9527C23.1054 12.1325 21.2867 12.9707 19.6857 13.0543C18.2958 13.1269 17.9495 13.1781 16.6237 12.8261C15.2978 12.4742 4.34436 5.86587 4.34436 5.86587C2.459 4.54039 0.409633 6.05521 0.409633 7.17481C0.389394 10.1985 0.361059 16.8801 0.409633 19.4164C0.458208 21.9526 2.79788 21.9598 3.96165 21.6463Z" fill="white"/>
<path d="M28.479 13.6924C28.6038 13.5864 28.7678 13.4558 28.8926 13.3498L29.0174 13.2438L29.0539 13.0841C29.1579 12.3348 29.0951 11.5811 28.8584 10.855L28.7299 10.3889L28.2571 10.5499C27.9264 10.6762 27.5957 10.8024 27.233 10.9214L26.8496 10.3971L27.5957 9.62621L27.9457 9.26907L27.543 8.97564C26.9072 8.52823 26.2176 8.16939 25.4915 7.97027L25.3001 7.92665L25.1507 7.99342C24.994 8.09212 24.8127 8.15162 24.6387 8.17916C25.4096 7.44748 26.2295 6.79423 27.0987 6.21939C27.8431 5.75054 28.612 5.3209 29.3984 4.96241L29.494 4.98422C29.5186 5.02344 29.504 5.08733 29.4721 5.08006C29.0977 5.39798 28.7232 5.7159 28.3241 5.99461L27.6435 6.47801L28.4507 6.76282C28.8579 6.88926 29.2578 7.04764 29.6577 7.20602L29.9055 7.29612L30.1479 7.11611C31.1856 6.24363 32.3856 5.54255 33.4552 4.67734C36.1284 2.66536 39.2023 1.24883 42.5032 0.455322C40.3383 2.88565 37.8271 5.06904 35.031 6.88497C33.8875 7.63254 32.6949 8.30167 31.4778 8.93159L31.218 9.04044L31.1916 9.30327C31.1852 9.7723 31.2007 10.1455 31.1377 10.5681L31.0757 11.4277L31.8127 10.9908C32.2365 10.7513 32.6528 10.5438 33.1329 10.3507L33.2286 10.3725C33.2531 10.4117 33.2386 10.4756 33.2067 10.4684C32.5679 11.0621 31.8801 11.5775 31.1676 12.0536C30.4041 12.7533 29.4711 13.3136 28.479 13.6924Z" fill="white"/>
</g>
<defs>
<clipPath id="clip0_6840_6567">
<rect width="239" height="42.5431" fill="white"/>
</clipPath>
</defs>
</svg>
