<svg width="4380" height="5508" viewBox="0 0 4380 5508" fill="none" xmlns="http://www.w3.org/2000/svg">
<g opacity="0.9" filter="url(#filter0_f_6840_6494)">
<path d="M3697.33 3591.58C3333.06 3290.2 3179.18 3766.63 2881.24 3782.31C2646.24 3794.68 2478.94 3916.72 2422 3978.71C1914.41 4110.16 4513.91 4267.16 3697.33 3591.58Z" fill="url(#paint0_linear_6840_6494)"/>
</g>
<circle cx="1762.81" cy="3394" r="517.5" stroke="url(#paint1_radial_6840_6494)" stroke-opacity="0.44"/>
<path d="M1343.4 3029.45C1377.77 3012.13 1394.96 3003.47 1407.03 3011.39C1419.1 3019.3 1418 3038.52 1415.82 3076.95L1415.53 3081.92C1413.35 3120.34 1412.25 3139.56 1399.36 3146.05C1386.47 3152.55 1370.38 3141.99 1338.19 3120.88L1334.03 3118.16C1301.85 3097.05 1285.75 3086.49 1286.57 3072.08C1287.39 3057.67 1304.58 3049.01 1338.95 3031.69L1343.4 3029.45Z" fill="url(#paint2_radial_6840_6494)"/>
<g clip-path="url(#clip0_6840_6494)" filter="url(#filter1_d_6840_6494)">
<path d="M1376.93 3053C1376.33 3052.63 1375.65 3052.44 1374.95 3052.45C1374.25 3052.46 1373.57 3052.67 1372.98 3053.05L1372.66 3053.26C1365.43 3057.68 1359.33 3063.73 1354.84 3070.92C1353.73 3072.78 1352.78 3074.74 1352 3076.77C1350.5 3080.55 1350.92 3084.2 1354.37 3086.33L1354.45 3086.37L1351.62 3090.98C1351.39 3091.35 1351.32 3091.81 1351.42 3092.24C1351.52 3092.67 1351.79 3093.04 1352.17 3093.27C1352.54 3093.5 1353 3093.57 1353.43 3093.47C1353.85 3093.37 1354.23 3093.1 1354.46 3092.72L1357.29 3088.12L1357.37 3088.17C1360.82 3090.29 1364.27 3089.01 1366.97 3085.97C1368.42 3084.36 1369.74 3082.63 1370.9 3080.8C1375.29 3073.55 1377.93 3065.37 1378.61 3056.92L1378.66 3056.54C1378.74 3055.85 1378.62 3055.14 1378.31 3054.51C1378.01 3053.89 1377.53 3053.36 1376.93 3053V3053ZM1362.07 3079.42C1361.75 3079.49 1361.41 3079.47 1361.1 3079.36C1360.79 3079.24 1360.52 3079.04 1360.33 3078.77C1360.14 3078.51 1360.03 3078.19 1360.01 3077.86C1360 3077.53 1360.09 3077.2 1360.26 3076.92C1360.43 3076.64 1360.69 3076.42 1360.98 3076.28C1361.28 3076.14 1361.62 3076.1 1361.94 3076.15C1362.27 3076.2 1362.57 3076.35 1362.81 3076.57C1363.06 3076.8 1363.22 3077.09 1363.3 3077.41C1363.4 3077.84 1363.33 3078.29 1363.1 3078.67C1362.87 3079.04 1362.5 3079.31 1362.07 3079.42ZM1365.77 3073.39C1365.45 3073.47 1365.11 3073.45 1364.8 3073.33C1364.5 3073.22 1364.23 3073.02 1364.03 3072.75C1363.84 3072.48 1363.73 3072.16 1363.72 3071.83C1363.71 3071.51 1363.79 3071.18 1363.96 3070.9C1364.14 3070.62 1364.39 3070.39 1364.69 3070.26C1364.99 3070.12 1365.32 3070.07 1365.65 3070.13C1365.97 3070.18 1366.28 3070.33 1366.52 3070.55C1366.76 3070.77 1366.93 3071.06 1367 3071.38C1367.11 3071.81 1367.04 3072.27 1366.8 3072.64C1366.57 3073.02 1366.2 3073.29 1365.77 3073.39ZM1369.47 3067.37C1369.15 3067.45 1368.82 3067.43 1368.51 3067.31C1368.2 3067.2 1367.93 3066.99 1367.74 3066.73C1367.54 3066.46 1367.43 3066.14 1367.42 3065.81C1367.41 3065.48 1367.49 3065.16 1367.67 3064.88C1367.84 3064.59 1368.09 3064.37 1368.39 3064.23C1368.69 3064.1 1369.03 3064.05 1369.35 3064.1C1369.68 3064.15 1369.98 3064.3 1370.22 3064.53C1370.46 3064.75 1370.63 3065.04 1370.71 3065.36C1370.81 3065.79 1370.74 3066.24 1370.51 3066.62C1370.28 3067 1369.9 3067.27 1369.47 3067.37ZM1347.69 3081.2C1347.19 3081.32 1346.67 3081.34 1346.16 3081.26C1345.65 3081.17 1345.16 3080.99 1344.72 3080.72C1344.28 3080.45 1343.89 3080.1 1343.59 3079.68C1343.29 3079.26 1343.07 3078.78 1342.95 3078.28C1342.71 3077.28 1342.87 3076.23 1343.39 3075.34C1345.48 3071.83 1348.81 3069.24 1352.72 3068.07C1352.48 3068.44 1352.23 3068.8 1352 3069.18C1350.79 3071.2 1349.75 3073.33 1348.9 3075.53C1348.17 3077.31 1347.82 3079.22 1347.87 3081.15L1347.69 3081.2ZM1364.98 3091.62C1366.72 3090.8 1368.27 3089.62 1369.52 3088.17C1371.11 3086.41 1372.54 3084.53 1373.8 3082.53C1374.04 3082.15 1374.24 3081.77 1374.46 3081.39C1375.19 3085.4 1374.37 3089.55 1372.19 3093C1371.63 3093.86 1370.76 3094.47 1369.76 3094.71C1368.75 3094.96 1367.68 3094.79 1366.79 3094.24C1365.9 3093.69 1365.26 3092.81 1365.02 3091.8L1364.98 3091.62Z" fill="white"/>
</g>
<g opacity="0.26" filter="url(#filter2_f_6840_6494)">
<ellipse cx="2732" cy="3143" rx="350" ry="243" fill="#FC3ADD"/>
</g>
<path d="M2993.7 2864.85C3031.13 2873.82 3049.85 2878.31 3053.95 2892.15C3058.06 2905.99 3044.81 2919.95 3018.33 2947.88L3014.9 2951.49C2988.42 2979.42 2975.17 2993.38 2961.14 2990.02C2947.1 2986.65 2941.63 2968.2 2930.69 2931.3L2929.27 2926.53C2918.33 2889.63 2912.85 2871.18 2922.79 2860.7C2932.72 2850.23 2951.43 2854.72 2988.86 2863.69L2993.7 2864.85Z" fill="url(#paint3_radial_6840_6494)"/>
<path d="M2996.43 2901.15C2998.04 2905.7 2997.78 2910.71 2995.71 2915.07C2993.63 2919.43 2989.91 2922.78 2985.36 2924.39C2980.81 2926.01 2975.8 2925.75 2971.45 2923.67C2967.09 2921.59 2963.73 2917.87 2962.12 2913.32C2960.51 2908.77 2960.77 2903.77 2962.84 2899.41C2964.92 2895.05 2968.64 2891.7 2973.19 2890.08C2977.74 2888.47 2982.75 2888.73 2987.1 2890.8C2991.46 2892.88 2994.82 2896.6 2996.43 2901.15ZM2975.9 2899.11L2975.42 2904.27C2975.41 2904.36 2975.38 2904.45 2975.33 2904.53C2975.28 2904.6 2975.21 2904.66 2975.13 2904.7L2970.48 2907C2970.39 2907.04 2970.31 2907.11 2970.26 2907.2C2970.21 2907.29 2970.18 2907.39 2970.18 2907.49C2970.19 2907.59 2970.22 2907.69 2970.27 2907.77C2970.33 2907.86 2970.41 2907.92 2970.5 2907.96L2975.27 2910.01C2975.36 2910.05 2975.43 2910.1 2975.48 2910.17C2975.54 2910.25 2975.58 2910.33 2975.59 2910.42L2976.33 2915.56C2976.4 2916.01 2976.96 2916.17 2977.26 2915.83L2980.68 2911.93C2980.74 2911.86 2980.81 2911.81 2980.9 2911.78C2980.99 2911.75 2981.08 2911.74 2981.17 2911.76L2986.28 2912.63C2986.73 2912.71 2987.06 2912.23 2986.83 2911.83L2984.17 2907.38C2984.13 2907.3 2984.1 2907.21 2984.1 2907.12C2984.09 2907.03 2984.12 2906.94 2984.16 2906.86L2986.57 2902.26C2986.62 2902.17 2986.64 2902.07 2986.63 2901.97C2986.62 2901.87 2986.58 2901.77 2986.52 2901.69C2986.46 2901.61 2986.38 2901.55 2986.28 2901.52C2986.19 2901.49 2986.08 2901.48 2985.98 2901.5L2980.92 2902.65C2980.84 2902.67 2980.74 2902.66 2980.66 2902.64C2980.57 2902.61 2980.49 2902.56 2980.43 2902.5L2976.8 2898.79C2976.73 2898.71 2976.64 2898.66 2976.54 2898.64C2976.44 2898.62 2976.34 2898.63 2976.25 2898.66C2976.15 2898.69 2976.07 2898.75 2976.01 2898.83C2975.94 2898.91 2975.91 2899.01 2975.9 2899.11L2975.9 2899.11ZM2986.37 2927.25C2990.47 2925.81 2994.01 2923.14 2996.54 2919.61L3000.35 2930.35C3000.44 2930.61 3000.46 2930.89 3000.4 2931.16C3000.34 2931.44 3000.21 2931.69 3000.02 2931.89C2999.83 2932.09 2999.59 2932.24 2999.32 2932.31C2999.05 2932.39 2998.77 2932.39 2998.5 2932.31L2987.39 2930.11L2980.14 2938.82C2979.98 2939.05 2979.76 2939.23 2979.51 2939.34C2979.25 2939.45 2978.97 2939.49 2978.7 2939.45C2978.42 2939.42 2978.16 2939.3 2977.94 2939.13C2977.73 2938.95 2977.56 2938.72 2977.47 2938.46L2973.66 2927.72C2977.85 2928.87 2982.28 2928.71 2986.37 2927.25Z" fill="white"/>
<g filter="url(#filter3_f_6840_6494)">
<circle cx="2109" cy="2109" r="153" fill="#638FFF" fill-opacity="0.71"/>
</g>
<g opacity="0.9" filter="url(#filter4_f_6840_6494)">
<path d="M3728.14 1238.79C3327.61 1231.64 3380.1 1507.57 3147.53 1568.12C2964.09 1615.88 2876.72 1775.12 2854.8 1851.96C2860.25 2361.87 4128.67 1245.95 3728.14 1238.79Z" fill="url(#paint4_linear_6840_6494)"/>
</g>
<g filter="url(#filter5_f_6840_6494)">
<ellipse cx="1440.21" cy="361.717" rx="57.791" ry="57.6727" fill="#E23F61"/>
</g>
<rect width="120.399" height="120.399" rx="37" transform="matrix(0.708227 -0.705985 0.708227 0.705985 1325 337)" fill="url(#paint5_linear_6840_6494)"/>
<g filter="url(#filter6_f_6840_6494)">
<ellipse cx="1440.21" cy="4466.72" rx="57.791" ry="57.6727" fill="#E23F61"/>
</g>
<rect width="120.399" height="120.399" rx="37" transform="matrix(0.708227 -0.705985 0.708227 0.705985 1325 4442)" fill="url(#paint6_linear_6840_6494)"/>
<path d="M1539.89 669.532C1551.53 662.813 1557.35 659.454 1562.03 660.867C1563.7 661.371 1565.23 662.254 1566.5 663.447C1570.06 666.794 1570.06 673.513 1570.06 686.951V686.951C1570.06 700.388 1570.06 707.107 1566.5 710.454C1565.23 711.647 1563.7 712.53 1562.03 713.034C1557.35 714.448 1551.53 711.088 1539.89 704.369V704.369C1528.26 697.65 1522.44 694.291 1521.32 689.53C1520.92 687.833 1520.92 686.068 1521.32 684.371C1522.44 679.61 1528.26 676.251 1539.89 669.532V669.532Z" fill="url(#paint7_radial_6840_6494)"/>
<path d="M1644.39 4883.42C1653.82 4877.98 1658.54 4875.25 1662.33 4876.4C1663.68 4876.81 1664.92 4877.52 1665.95 4878.49C1668.84 4881.2 1668.84 4886.65 1668.84 4897.54V4897.54C1668.84 4908.43 1668.84 4913.88 1665.95 4916.59C1664.92 4917.56 1663.68 4918.28 1662.33 4918.68C1658.54 4919.83 1653.82 4917.11 1644.39 4911.66V4911.66C1634.96 4906.21 1630.24 4903.49 1629.33 4899.63C1629.01 4898.26 1629.01 4896.83 1629.33 4895.45C1630.24 4891.59 1634.96 4888.87 1644.39 4883.42V4883.42Z" fill="url(#paint8_radial_6840_6494)"/>
<path d="M3028.29 2246.01C3034.44 2245.8 3037.52 2245.69 3038.74 2247.65C3039.97 2249.6 3038.52 2252.32 3035.63 2257.76L3034.71 2259.49C3031.82 2264.93 3030.38 2267.65 3028.07 2267.73C3025.76 2267.81 3024.13 2265.2 3020.87 2259.98L3019.83 2258.32C3016.56 2253.1 3014.93 2250.49 3016.01 2248.45C3017.1 2246.41 3020.17 2246.3 3026.33 2246.08L3028.29 2246.01Z" fill="url(#paint9_radial_6840_6494)"/>
<circle cx="2064.5" cy="115.5" r="6.5" fill="url(#paint10_radial_6840_6494)"/>
<circle cx="2914.5" cy="1022.5" r="6.5" fill="url(#paint11_radial_6840_6494)"/>
<circle cx="3004.5" cy="258.5" r="6.5" fill="url(#paint12_radial_6840_6494)"/>
<circle cx="3004.5" cy="4363.5" r="6.5" fill="url(#paint13_radial_6840_6494)"/>
<g filter="url(#filter7_f_6840_6494)">
<circle cx="2985.69" cy="738.687" r="63.6913" transform="rotate(50.3101 2985.69 738.687)" fill="#3FE2CE"/>
</g>
<rect x="2908.28" y="611.982" width="132.827" height="132.827" rx="37" transform="rotate(5.31007 2908.28 611.982)" fill="url(#paint14_linear_6840_6494)"/>
<g clip-path="url(#clip1_6840_6494)" filter="url(#filter8_d_6840_6494)">
<path d="M2985 666.567C2984.75 667.008 2984.54 667.463 2984.37 667.932C2982.8 672.153 2984.96 676.828 2989.16 678.383C2989.63 678.556 2990.1 678.669 2990.59 678.767L2984.99 693.902C2982.64 700.262 2977.49 702.644 2971.11 700.284L2957.25 695.154C2950.87 692.793 2948.52 687.635 2950.87 681.274L2956.01 667.396C2958.37 661.019 2963.52 658.619 2969.9 660.98L2985 666.567ZM2981.16 678.111C2980.67 677.866 2980.08 677.905 2979.63 678.206L2972.92 682.397L2969.23 676.385C2969 676.023 2968.66 675.788 2968.27 675.689C2967.88 675.607 2967.47 675.686 2967.13 675.903L2958.9 681.072L2958.73 681.198C2958.19 681.678 2958.05 682.503 2958.46 683.126C2958.66 683.392 2958.9 683.608 2959.22 683.726C2959.65 683.905 2960.14 683.831 2960.54 683.573L2967.49 679.255L2971.35 685.25L2971.47 685.423C2971.96 685.964 2972.76 686.093 2973.4 685.688L2981.41 680.7L2981.32 680.71C2981.77 680.408 2982.03 679.904 2981.99 679.359C2981.96 678.814 2981.63 678.328 2981.16 678.111ZM2994 666.102C2996.5 667.025 2997.77 669.801 2996.85 672.295C2995.92 674.79 2993.15 676.066 2990.65 675.143C2988.16 674.219 2986.88 671.444 2987.81 668.949C2988.73 666.455 2991.51 665.179 2994 666.102Z" fill="white"/>
</g>
<g filter="url(#filter9_f_6840_6494)">
<circle cx="2985.69" cy="4716.69" r="63.6913" transform="rotate(50.3101 2985.69 4716.69)" fill="#3FE2CE"/>
</g>
<rect x="2908.28" y="4589.98" width="132.827" height="132.827" rx="37" transform="rotate(5.31007 2908.28 4589.98)" fill="url(#paint15_linear_6840_6494)"/>
<g clip-path="url(#clip2_6840_6494)" filter="url(#filter10_d_6840_6494)">
<path d="M2985 4644.57C2984.75 4645.01 2984.54 4645.46 2984.37 4645.93C2982.8 4650.15 2984.96 4654.83 2989.16 4656.38C2989.63 4656.56 2990.1 4656.67 2990.59 4656.77L2984.99 4671.9C2982.64 4678.26 2977.49 4680.64 2971.11 4678.28L2957.25 4673.15C2950.87 4670.79 2948.52 4665.63 2950.87 4659.27L2956.01 4645.4C2958.37 4639.02 2963.52 4636.62 2969.9 4638.98L2985 4644.57ZM2981.16 4656.11C2980.67 4655.87 2980.08 4655.9 2979.63 4656.21L2972.92 4660.4L2969.23 4654.38C2969 4654.02 2968.66 4653.79 2968.27 4653.69C2967.88 4653.61 2967.47 4653.69 2967.13 4653.9L2958.9 4659.07L2958.73 4659.2C2958.19 4659.68 2958.05 4660.5 2958.46 4661.13C2958.66 4661.39 2958.9 4661.61 2959.22 4661.73C2959.65 4661.91 2960.14 4661.83 2960.54 4661.57L2967.49 4657.26L2971.35 4663.25L2971.47 4663.42C2971.96 4663.96 2972.76 4664.09 2973.4 4663.69L2981.41 4658.7L2981.32 4658.71C2981.77 4658.41 2982.03 4657.9 2981.99 4657.36C2981.96 4656.81 2981.63 4656.33 2981.16 4656.11ZM2994 4644.1C2996.5 4645.03 2997.77 4647.8 2996.85 4650.3C2995.92 4652.79 2993.15 4654.07 2990.65 4653.14C2988.16 4652.22 2986.88 4649.44 2987.81 4646.95C2988.73 4644.45 2991.51 4643.18 2994 4644.1Z" fill="white"/>
</g>
<g filter="url(#filter11_f_6840_6494)">
<path d="M878.965 1275.2C662.965 971.196 998.298 998.529 1192.96 1050.2C1371.96 1129.7 1118.96 1221.2 1417.96 1390.2C1716.96 1559.2 1148.96 1655.2 878.965 1275.2Z" fill="url(#paint16_linear_6840_6494)"/>
</g>
<g filter="url(#filter12_f_6840_6494)">
<circle cx="2039.5" cy="2232.5" r="48.5" fill="#3688ED"/>
</g>
<path d="M2078.16 2203.66C2075.09 2242.03 2073.56 2261.21 2060.52 2267.41C2047.49 2273.61 2031.64 2262.69 1999.95 2240.85L1995.85 2238.03C1964.15 2216.19 1948.31 2205.27 1949.46 2190.88C1950.6 2176.49 1967.98 2168.23 2002.75 2151.7L2007.24 2149.56C2042 2133.03 2059.38 2124.77 2071.27 2132.96C2083.15 2141.15 2081.62 2160.33 2078.55 2198.7L2078.16 2203.66Z" fill="url(#paint17_radial_6840_6494)"/>
<g clip-path="url(#clip3_6840_6494)" filter="url(#filter13_d_6840_6494)">
<path d="M2046.62 2214.26L2044.82 2212.47L2041.94 2209.59L2046.59 2204.94C2046.79 2204.74 2046.93 2204.5 2047.01 2204.23C2047.09 2203.96 2047.1 2203.67 2047.04 2203.4C2046.97 2203.13 2046.85 2202.87 2046.66 2202.66C2046.48 2202.45 2046.24 2202.29 2045.98 2202.2L2031.03 2196.77C2030.44 2196.56 2029.79 2196.52 2029.17 2196.65C2028.56 2196.79 2027.99 2197.1 2027.54 2197.55C2027.09 2198 2026.78 2198.56 2026.64 2199.18C2026.51 2199.8 2026.55 2200.44 2026.76 2201.04L2032.2 2215.99C2032.3 2216.25 2032.46 2216.49 2032.67 2216.67C2032.88 2216.86 2033.13 2216.98 2033.4 2217.05C2033.52 2217.07 2033.64 2217.08 2033.77 2217.08C2034.21 2217.08 2034.63 2216.91 2034.94 2216.6L2039.59 2211.94L2042.47 2214.82L2044.26 2216.61C2044.58 2216.92 2045 2217.08 2045.43 2217.08C2045.87 2217.08 2046.29 2216.9 2046.6 2216.59C2046.91 2216.28 2047.08 2215.87 2047.09 2215.43C2047.09 2214.99 2046.92 2214.57 2046.62 2214.26V2214.26Z" fill="white"/>
<path d="M2023.77 2210.44C2020.48 2210.44 2017.25 2209.46 2014.51 2207.63C2011.77 2205.8 2009.64 2203.2 2008.37 2200.15C2007.11 2197.11 2006.78 2193.75 2007.43 2190.52C2008.07 2187.29 2009.66 2184.32 2011.99 2181.99C2014.32 2179.66 2017.29 2178.07 2020.52 2177.43C2023.75 2176.78 2027.1 2177.11 2030.15 2178.37C2033.2 2179.64 2035.8 2181.77 2037.63 2184.51C2039.46 2187.25 2040.44 2190.48 2040.44 2193.77C2040.44 2194.21 2040.26 2194.64 2039.95 2194.95C2039.64 2195.26 2039.21 2195.44 2038.77 2195.44C2038.33 2195.44 2037.91 2195.26 2037.59 2194.95C2037.28 2194.64 2037.11 2194.21 2037.11 2193.77C2037.11 2191.14 2036.32 2188.56 2034.86 2186.37C2033.39 2184.17 2031.31 2182.46 2028.87 2181.45C2026.44 2180.45 2023.76 2180.18 2021.17 2180.7C2018.58 2181.21 2016.21 2182.48 2014.34 2184.34C2012.48 2186.21 2011.21 2188.59 2010.7 2191.17C2010.18 2193.76 2010.44 2196.44 2011.45 2198.88C2012.46 2201.31 2014.17 2203.39 2016.36 2204.86C2018.56 2206.32 2021.14 2207.11 2023.77 2207.11C2024.21 2207.11 2024.64 2207.28 2024.95 2207.59C2025.26 2207.91 2025.44 2208.33 2025.44 2208.77C2025.44 2209.21 2025.26 2209.64 2024.95 2209.95C2024.64 2210.26 2024.21 2210.44 2023.77 2210.44Z" fill="white"/>
<path d="M2020.58 2203.14C2020.36 2203.14 2020.14 2203.1 2019.94 2203.01C2018.42 2202.38 2017.08 2201.39 2016.04 2200.11C2015 2198.84 2014.29 2197.33 2013.97 2195.72C2013.65 2194.11 2013.73 2192.44 2014.21 2190.87C2014.69 2189.29 2015.55 2187.86 2016.71 2186.7C2017.87 2185.54 2019.31 2184.68 2020.88 2184.21C2022.45 2183.73 2024.12 2183.65 2025.73 2183.97C2027.35 2184.29 2028.85 2185.01 2030.12 2186.05C2031.39 2187.1 2032.39 2188.44 2033.02 2189.96C2033.1 2190.16 2033.15 2190.38 2033.15 2190.6C2033.16 2190.82 2033.12 2191.04 2033.03 2191.24C2032.95 2191.45 2032.83 2191.64 2032.67 2191.79C2032.51 2191.95 2032.33 2192.07 2032.12 2192.16C2031.92 2192.24 2031.7 2192.29 2031.48 2192.29C2031.26 2192.28 2031.04 2192.24 2030.84 2192.15C2030.63 2192.07 2030.45 2191.94 2030.29 2191.78C2030.14 2191.62 2030.02 2191.44 2029.94 2191.23C2029.52 2190.22 2028.85 2189.32 2028.01 2188.63C2027.16 2187.93 2026.15 2187.46 2025.08 2187.25C2024 2187.03 2022.89 2187.09 2021.84 2187.4C2020.8 2187.72 2019.84 2188.29 2019.07 2189.07C2018.29 2189.84 2017.72 2190.8 2017.4 2191.84C2017.08 2192.89 2017.03 2194 2017.24 2195.08C2017.45 2196.15 2017.93 2197.16 2018.62 2198.01C2019.31 2198.85 2020.21 2199.52 2021.22 2199.94C2021.57 2200.09 2021.87 2200.35 2022.05 2200.69C2022.23 2201.03 2022.29 2201.43 2022.22 2201.81C2022.14 2202.18 2021.94 2202.52 2021.64 2202.77C2021.34 2203.01 2020.96 2203.15 2020.58 2203.15V2203.14Z" fill="white"/>
</g>
<g opacity="0.3" filter="url(#filter14_f_6840_6494)">
<path d="M1257.61 2927.95C1002.57 2679.79 1398.51 2702.11 1628.35 2744.28C1839.7 2809.18 1540.98 2883.87 1894.01 3021.83C2247.05 3159.79 1576.4 3238.15 1257.61 2927.95Z" fill="url(#paint18_linear_6840_6494)"/>
</g>
<circle cx="1267.5" cy="3545.5" r="6.5" fill="url(#paint19_radial_6840_6494)"/>
<circle cx="1991.5" cy="966.5" r="6.5" fill="url(#paint20_radial_6840_6494)"/>
<path d="M2121.36 3766.15C2117.81 3762.49 2116.03 3760.67 2116.12 3758.81C2116.15 3758.15 2116.33 3757.51 2116.65 3756.93C2117.55 3755.31 2120.02 3754.69 2124.96 3753.43V3753.43C2129.9 3752.18 2132.36 3751.56 2133.93 3752.56C2134.48 3752.91 2134.95 3753.39 2135.29 3753.96C2136.25 3755.55 2135.55 3758 2134.17 3762.9V3762.9C2132.78 3767.81 2132.09 3770.26 2130.44 3771.11C2129.85 3771.42 2129.2 3771.58 2128.54 3771.59C2126.69 3771.62 2124.91 3769.8 2121.36 3766.15V3766.15Z" fill="url(#paint21_radial_6840_6494)"/>
<g filter="url(#filter15_d_6840_6494)">
<path d="M1410 320C1414.14 320 1418.06 321.435 1421.47 324.092C1424.89 326.73 1427.8 330.589 1429.88 335.418C1430.04 335.787 1430.04 336.213 1429.88 336.562C1425.71 346.221 1418.27 352 1410 352H1409.98C1401.73 352 1394.29 346.221 1390.12 336.562C1389.96 336.213 1389.96 335.787 1390.12 335.418C1394.29 325.76 1401.73 320 1409.98 320H1410ZM1410 328.242C1405.69 328.242 1402.2 331.714 1402.2 336C1402.2 340.267 1405.69 343.738 1410 343.738C1414.29 343.738 1417.79 340.267 1417.79 336C1417.79 331.714 1414.29 328.242 1410 328.242ZM1410 331.147C1412.68 331.147 1414.86 333.319 1414.86 335.996C1414.86 338.653 1412.68 340.825 1410 340.825C1407.31 340.825 1405.12 338.653 1405.12 335.996C1405.12 335.666 1405.16 335.356 1405.22 335.045H1405.32C1407.49 335.045 1409.24 333.339 1409.32 331.205C1409.53 331.167 1409.77 331.147 1410 331.147Z" fill="white"/>
</g>
<g filter="url(#filter16_d_6840_6494)">
<path d="M1410 4425C1414.14 4425 1418.06 4426.44 1421.47 4429.09C1424.89 4431.73 1427.8 4435.59 1429.88 4440.42C1430.04 4440.79 1430.04 4441.21 1429.88 4441.56C1425.71 4451.22 1418.27 4457 1410 4457H1409.98C1401.73 4457 1394.29 4451.22 1390.12 4441.56C1389.96 4441.21 1389.96 4440.79 1390.12 4440.42C1394.29 4430.76 1401.73 4425 1409.98 4425H1410ZM1410 4433.24C1405.69 4433.24 1402.2 4436.71 1402.2 4441C1402.2 4445.27 1405.69 4448.74 1410 4448.74C1414.29 4448.74 1417.79 4445.27 1417.79 4441C1417.79 4436.71 1414.29 4433.24 1410 4433.24ZM1410 4436.15C1412.68 4436.15 1414.86 4438.32 1414.86 4441C1414.86 4443.65 1412.68 4445.82 1410 4445.82C1407.31 4445.82 1405.12 4443.65 1405.12 4441C1405.12 4440.67 1405.16 4440.36 1405.22 4440.05H1405.32C1407.49 4440.05 1409.24 4438.34 1409.32 4436.21C1409.53 4436.17 1409.77 4436.15 1410 4436.15Z" fill="white"/>
</g>
<circle cx="3039.5" cy="3973.5" r="6.5" fill="url(#paint22_radial_6840_6494)"/>
<defs>
<filter id="filter0_f_6840_6494" x="2039.7" y="3175.87" width="2133.68" height="1234.42" filterUnits="userSpaceOnUse" color-interpolation-filters="sRGB">
<feFlood flood-opacity="0" result="BackgroundImageFix"/>
<feBlend mode="normal" in="SourceGraphic" in2="BackgroundImageFix" result="shape"/>
<feGaussianBlur stdDeviation="158" result="effect1_foregroundBlur_6840_6494"/>
</filter>
<filter id="filter1_d_6840_6494" x="1318.82" y="3031.69" width="88.1895" height="88.1887" filterUnits="userSpaceOnUse" color-interpolation-filters="sRGB">
<feFlood flood-opacity="0" result="BackgroundImageFix"/>
<feColorMatrix in="SourceAlpha" type="matrix" values="0 0 0 0 0 0 0 0 0 0 0 0 0 0 0 0 0 0 127 0" result="hardAlpha"/>
<feOffset/>
<feGaussianBlur stdDeviation="10"/>
<feColorMatrix type="matrix" values="0 0 0 0 1 0 0 0 0 1 0 0 0 0 1 0 0 0 0.7 0"/>
<feBlend mode="normal" in2="BackgroundImageFix" result="effect1_dropShadow_6840_6494"/>
<feBlend mode="normal" in="SourceGraphic" in2="effect1_dropShadow_6840_6494" result="shape"/>
</filter>
<filter id="filter2_f_6840_6494" x="2061" y="2579" width="1342" height="1128" filterUnits="userSpaceOnUse" color-interpolation-filters="sRGB">
<feFlood flood-opacity="0" result="BackgroundImageFix"/>
<feBlend mode="normal" in="SourceGraphic" in2="BackgroundImageFix" result="shape"/>
<feGaussianBlur stdDeviation="160.5" result="effect1_foregroundBlur_6840_6494"/>
</filter>
<filter id="filter3_f_6840_6494" x="1656" y="1656" width="906" height="906" filterUnits="userSpaceOnUse" color-interpolation-filters="sRGB">
<feFlood flood-opacity="0" result="BackgroundImageFix"/>
<feBlend mode="normal" in="SourceGraphic" in2="BackgroundImageFix" result="shape"/>
<feGaussianBlur stdDeviation="150" result="effect1_foregroundBlur_6840_6494"/>
</filter>
<filter id="filter4_f_6840_6494" x="2537.91" y="922.656" width="1584.42" height="1378.69" filterUnits="userSpaceOnUse" color-interpolation-filters="sRGB">
<feFlood flood-opacity="0" result="BackgroundImageFix"/>
<feBlend mode="normal" in="SourceGraphic" in2="BackgroundImageFix" result="shape"/>
<feGaussianBlur stdDeviation="158" result="effect1_foregroundBlur_6840_6494"/>
</filter>
<filter id="filter5_f_6840_6494" x="1283.42" y="205.044" width="313.582" height="313.345" filterUnits="userSpaceOnUse" color-interpolation-filters="sRGB">
<feFlood flood-opacity="0" result="BackgroundImageFix"/>
<feBlend mode="normal" in="SourceGraphic" in2="BackgroundImageFix" result="shape"/>
<feGaussianBlur stdDeviation="49.5" result="effect1_foregroundBlur_6840_6494"/>
</filter>
<filter id="filter6_f_6840_6494" x="1283.42" y="4310.04" width="313.582" height="313.345" filterUnits="userSpaceOnUse" color-interpolation-filters="sRGB">
<feFlood flood-opacity="0" result="BackgroundImageFix"/>
<feBlend mode="normal" in="SourceGraphic" in2="BackgroundImageFix" result="shape"/>
<feGaussianBlur stdDeviation="49.5" result="effect1_foregroundBlur_6840_6494"/>
</filter>
<filter id="filter7_f_6840_6494" x="2822.99" y="575.994" width="325.387" height="325.386" filterUnits="userSpaceOnUse" color-interpolation-filters="sRGB">
<feFlood flood-opacity="0" result="BackgroundImageFix"/>
<feBlend mode="normal" in="SourceGraphic" in2="BackgroundImageFix" result="shape"/>
<feGaussianBlur stdDeviation="49.5" result="effect1_foregroundBlur_6840_6494"/>
</filter>
<filter id="filter8_d_6840_6494" x="2922.98" y="633.752" width="99.6758" height="99.6766" filterUnits="userSpaceOnUse" color-interpolation-filters="sRGB">
<feFlood flood-opacity="0" result="BackgroundImageFix"/>
<feColorMatrix in="SourceAlpha" type="matrix" values="0 0 0 0 0 0 0 0 0 0 0 0 0 0 0 0 0 0 127 0" result="hardAlpha"/>
<feOffset dy="4"/>
<feGaussianBlur stdDeviation="9.5"/>
<feColorMatrix type="matrix" values="0 0 0 0 1 0 0 0 0 1 0 0 0 0 1 0 0 0 0.77 0"/>
<feBlend mode="overlay" in2="BackgroundImageFix" result="effect1_dropShadow_6840_6494"/>
<feBlend mode="normal" in="SourceGraphic" in2="effect1_dropShadow_6840_6494" result="shape"/>
</filter>
<filter id="filter9_f_6840_6494" x="2822.99" y="4553.99" width="325.387" height="325.386" filterUnits="userSpaceOnUse" color-interpolation-filters="sRGB">
<feFlood flood-opacity="0" result="BackgroundImageFix"/>
<feBlend mode="normal" in="SourceGraphic" in2="BackgroundImageFix" result="shape"/>
<feGaussianBlur stdDeviation="49.5" result="effect1_foregroundBlur_6840_6494"/>
</filter>
<filter id="filter10_d_6840_6494" x="2922.98" y="4611.75" width="99.6758" height="99.6768" filterUnits="userSpaceOnUse" color-interpolation-filters="sRGB">
<feFlood flood-opacity="0" result="BackgroundImageFix"/>
<feColorMatrix in="SourceAlpha" type="matrix" values="0 0 0 0 0 0 0 0 0 0 0 0 0 0 0 0 0 0 127 0" result="hardAlpha"/>
<feOffset dy="4"/>
<feGaussianBlur stdDeviation="9.5"/>
<feColorMatrix type="matrix" values="0 0 0 0 1 0 0 0 0 1 0 0 0 0 1 0 0 0 0.77 0"/>
<feBlend mode="overlay" in2="BackgroundImageFix" result="effect1_dropShadow_6840_6494"/>
<feBlend mode="normal" in="SourceGraphic" in2="effect1_dropShadow_6840_6494" result="shape"/>
</filter>
<filter id="filter11_f_6840_6494" x="636" y="845" width="1039.65" height="866.632" filterUnits="userSpaceOnUse" color-interpolation-filters="sRGB">
<feFlood flood-opacity="0" result="BackgroundImageFix"/>
<feBlend mode="normal" in="SourceGraphic" in2="BackgroundImageFix" result="shape"/>
<feGaussianBlur stdDeviation="86.5" result="effect1_foregroundBlur_6840_6494"/>
</filter>
<filter id="filter12_f_6840_6494" x="1919" y="2112" width="241" height="241" filterUnits="userSpaceOnUse" color-interpolation-filters="sRGB">
<feFlood flood-opacity="0" result="BackgroundImageFix"/>
<feBlend mode="normal" in="SourceGraphic" in2="BackgroundImageFix" result="shape"/>
<feGaussianBlur stdDeviation="36" result="effect1_foregroundBlur_6840_6494"/>
</filter>
<filter id="filter13_d_6840_6494" x="1987.11" y="2157.11" width="80" height="80" filterUnits="userSpaceOnUse" color-interpolation-filters="sRGB">
<feFlood flood-opacity="0" result="BackgroundImageFix"/>
<feColorMatrix in="SourceAlpha" type="matrix" values="0 0 0 0 0 0 0 0 0 0 0 0 0 0 0 0 0 0 127 0" result="hardAlpha"/>
<feOffset/>
<feGaussianBlur stdDeviation="10"/>
<feColorMatrix type="matrix" values="0 0 0 0 1 0 0 0 0 1 0 0 0 0 1 0 0 0 0.7 0"/>
<feBlend mode="normal" in2="BackgroundImageFix" result="effect1_dropShadow_6840_6494"/>
<feBlend mode="normal" in="SourceGraphic" in2="effect1_dropShadow_6840_6494" result="shape"/>
</filter>
<filter id="filter14_f_6840_6494" x="1002" y="2545" width="1165" height="771" filterUnits="userSpaceOnUse" color-interpolation-filters="sRGB">
<feFlood flood-opacity="0" result="BackgroundImageFix"/>
<feBlend mode="normal" in="SourceGraphic" in2="BackgroundImageFix" result="shape"/>
<feGaussianBlur stdDeviation="86.5" result="effect1_foregroundBlur_6840_6494"/>
</filter>
<filter id="filter15_d_6840_6494" x="1367" y="297" width="86" height="86" filterUnits="userSpaceOnUse" color-interpolation-filters="sRGB">
<feFlood flood-opacity="0" result="BackgroundImageFix"/>
<feColorMatrix in="SourceAlpha" type="matrix" values="0 0 0 0 0 0 0 0 0 0 0 0 0 0 0 0 0 0 127 0" result="hardAlpha"/>
<feOffset dy="4"/>
<feGaussianBlur stdDeviation="9.5"/>
<feColorMatrix type="matrix" values="0 0 0 0 1 0 0 0 0 1 0 0 0 0 1 0 0 0 0.77 0"/>
<feBlend mode="overlay" in2="BackgroundImageFix" result="effect1_dropShadow_6840_6494"/>
<feBlend mode="normal" in="SourceGraphic" in2="effect1_dropShadow_6840_6494" result="shape"/>
</filter>
<filter id="filter16_d_6840_6494" x="1367" y="4402" width="86" height="86" filterUnits="userSpaceOnUse" color-interpolation-filters="sRGB">
<feFlood flood-opacity="0" result="BackgroundImageFix"/>
<feColorMatrix in="SourceAlpha" type="matrix" values="0 0 0 0 0 0 0 0 0 0 0 0 0 0 0 0 0 0 127 0" result="hardAlpha"/>
<feOffset dy="4"/>
<feGaussianBlur stdDeviation="9.5"/>
<feColorMatrix type="matrix" values="0 0 0 0 1 0 0 0 0 1 0 0 0 0 1 0 0 0 0.77 0"/>
<feBlend mode="overlay" in2="BackgroundImageFix" result="effect1_dropShadow_6840_6494"/>
<feBlend mode="normal" in="SourceGraphic" in2="effect1_dropShadow_6840_6494" result="shape"/>
</filter>
<linearGradient id="paint0_linear_6840_6494" x1="3054.19" y1="3661.58" x2="3124.22" y2="4016.25" gradientUnits="userSpaceOnUse">
<stop stop-color="#FF34C6"/>
<stop offset="1" stop-color="#1E41BD" stop-opacity="0.84"/>
</linearGradient>
<radialGradient id="paint1_radial_6840_6494" cx="0" cy="0" r="1" gradientUnits="userSpaceOnUse" gradientTransform="translate(1611.85 2714.38) rotate(74.6591) scale(1317.99 1127.83)">
<stop stop-color="#5498FF"/>
<stop offset="1" stop-color="#D39AFF" stop-opacity="0"/>
</radialGradient>
<radialGradient id="paint2_radial_6840_6494" cx="0" cy="0" r="1" gradientUnits="userSpaceOnUse" gradientTransform="translate(1408.86 3161.67) rotate(-144.51) scale(158.446)">
<stop stop-color="#57FFB8" stop-opacity="0"/>
<stop offset="0.451969" stop-color="#39FBCC" stop-opacity="0.42"/>
<stop offset="1" stop-color="#3EE7A7"/>
</radialGradient>
<radialGradient id="paint3_radial_6840_6494" cx="0" cy="0" r="1" gradientUnits="userSpaceOnUse" gradientTransform="translate(2958.3 3008.08) rotate(-104.286) scale(158.446)">
<stop stop-color="#FF576B" stop-opacity="0"/>
<stop offset="0.451969" stop-color="#FB3950" stop-opacity="0.42"/>
<stop offset="1" stop-color="#FB3950"/>
</radialGradient>
<linearGradient id="paint4_linear_6840_6494" x1="3239.91" y1="1409.48" x2="3431.4" y2="1791.66" gradientUnits="userSpaceOnUse">
<stop stop-color="#FF34C6"/>
<stop offset="1" stop-color="#1E41BD" stop-opacity="0.84"/>
</linearGradient>
<linearGradient id="paint5_linear_6840_6494" x1="53.7788" y1="-8.59543" x2="97.0598" y2="121.723" gradientUnits="userSpaceOnUse">
<stop stop-color="#FF2B44"/>
<stop offset="0.125" stop-color="#FF4158"/>
<stop offset="1" stop-color="#FF4869" stop-opacity="0"/>
</linearGradient>
<linearGradient id="paint6_linear_6840_6494" x1="53.7788" y1="-8.59543" x2="97.0598" y2="121.723" gradientUnits="userSpaceOnUse">
<stop stop-color="#FF2B44"/>
<stop offset="0.125" stop-color="#FF4158"/>
<stop offset="1" stop-color="#FF4869" stop-opacity="0"/>
</linearGradient>
<radialGradient id="paint7_radial_6840_6494" cx="0" cy="0" r="1" gradientUnits="userSpaceOnUse" gradientTransform="translate(1568.39 706.006) rotate(-140.179) scale(65.4348)">
<stop stop-color="#35FFDB"/>
<stop offset="0.979167" stop-color="#119098" stop-opacity="0.59"/>
</radialGradient>
<radialGradient id="paint8_radial_6840_6494" cx="0" cy="0" r="1" gradientUnits="userSpaceOnUse" gradientTransform="translate(1667.49 4912.99) rotate(-140.179) scale(53.0393)">
<stop stop-color="#35FFDB"/>
<stop offset="0.979167" stop-color="#119098" stop-opacity="0.59"/>
</radialGradient>
<radialGradient id="paint9_radial_6840_6494" cx="0" cy="0" r="1" gradientUnits="userSpaceOnUse" gradientTransform="translate(3030.74 2265.46) rotate(-112.198) scale(27.8677)">
<stop stop-color="#35FFDB"/>
<stop offset="0.979167" stop-color="#119098" stop-opacity="0.59"/>
</radialGradient>
<radialGradient id="paint10_radial_6840_6494" cx="0" cy="0" r="1" gradientUnits="userSpaceOnUse" gradientTransform="translate(2062.14 112.023) rotate(53.0806) scale(10.7606)">
<stop stop-color="#384CFF"/>
<stop offset="1" stop-color="#8976FF" stop-opacity="0"/>
</radialGradient>
<radialGradient id="paint11_radial_6840_6494" cx="0" cy="0" r="1" gradientUnits="userSpaceOnUse" gradientTransform="translate(2912.14 1019.02) rotate(53.0806) scale(10.7606)">
<stop stop-color="#384CFF"/>
<stop offset="1" stop-color="#8976FF" stop-opacity="0"/>
</radialGradient>
<radialGradient id="paint12_radial_6840_6494" cx="0" cy="0" r="1" gradientUnits="userSpaceOnUse" gradientTransform="translate(3002.14 255.023) rotate(53.0806) scale(10.7606)">
<stop stop-color="#FFF738"/>
<stop offset="1" stop-color="#FFC076" stop-opacity="0"/>
</radialGradient>
<radialGradient id="paint13_radial_6840_6494" cx="0" cy="0" r="1" gradientUnits="userSpaceOnUse" gradientTransform="translate(3002.14 4360.02) rotate(53.0806) scale(10.7606)">
<stop stop-color="#FFF738"/>
<stop offset="1" stop-color="#FFC076" stop-opacity="0"/>
</radialGradient>
<linearGradient id="paint14_linear_6840_6494" x1="2967.61" y1="602.5" x2="3015.35" y2="746.27" gradientUnits="userSpaceOnUse">
<stop stop-color="#2BFFCC"/>
<stop offset="0.125" stop-color="#41FFAF"/>
<stop offset="1" stop-color="#48FFD3" stop-opacity="0"/>
</linearGradient>
<linearGradient id="paint15_linear_6840_6494" x1="2967.61" y1="4580.5" x2="3015.35" y2="4724.27" gradientUnits="userSpaceOnUse">
<stop stop-color="#2BFFCC"/>
<stop offset="0.125" stop-color="#41FFAF"/>
<stop offset="1" stop-color="#48FFD3" stop-opacity="0"/>
</linearGradient>
<linearGradient id="paint16_linear_6840_6494" x1="1155.82" y1="1018" x2="1155.82" y2="1538.63" gradientUnits="userSpaceOnUse">
<stop stop-color="#FF3A46"/>
<stop offset="1" stop-color="#5F6FFF" stop-opacity="0.22"/>
</linearGradient>
<radialGradient id="paint17_radial_6840_6494" cx="0" cy="0" r="1" gradientUnits="userSpaceOnUse" gradientTransform="translate(1959.09 2204.33) rotate(-14.3824) scale(133.095)">
<stop stop-color="#3592FF"/>
<stop offset="1" stop-color="#4299FF" stop-opacity="0.23"/>
</radialGradient>
<linearGradient id="paint18_linear_6840_6494" x1="1584.5" y1="2718" x2="1584.5" y2="3143" gradientUnits="userSpaceOnUse">
<stop stop-color="#FF3A46"/>
<stop offset="1" stop-color="#5F6FFF" stop-opacity="0.22"/>
</linearGradient>
<radialGradient id="paint19_radial_6840_6494" cx="0" cy="0" r="1" gradientUnits="userSpaceOnUse" gradientTransform="translate(1265.14 3542.02) rotate(53.0806) scale(10.7606)">
<stop stop-color="#3DBEA2"/>
<stop offset="1" stop-color="#FCFF76" stop-opacity="0"/>
</radialGradient>
<radialGradient id="paint20_radial_6840_6494" cx="0" cy="0" r="1" gradientUnits="userSpaceOnUse" gradientTransform="translate(1989.14 963.023) rotate(53.0806) scale(10.7606)">
<stop stop-color="#3DBEA2"/>
<stop offset="1" stop-color="#FCFF76" stop-opacity="0"/>
</radialGradient>
<radialGradient id="paint21_radial_6840_6494" cx="0" cy="0" r="1" gradientUnits="userSpaceOnUse" gradientTransform="translate(2132.12 3752.28) rotate(115.612) scale(24.8108)">
<stop stop-color="#FF35C6"/>
<stop offset="0.979167" stop-color="#981152" stop-opacity="0.59"/>
</radialGradient>
<radialGradient id="paint22_radial_6840_6494" cx="0" cy="0" r="1" gradientUnits="userSpaceOnUse" gradientTransform="translate(3037.14 3970.02) rotate(53.0806) scale(10.7606)">
<stop stop-color="#384CFF"/>
<stop offset="1" stop-color="#8976FF" stop-opacity="0"/>
</radialGradient>
<clipPath id="clip0_6840_6494">
<rect width="40" height="40" fill="white" transform="translate(1338.82 3060.97) rotate(-13.4148)"/>
</clipPath>
<clipPath id="clip1_6840_6494">
<rect width="48" height="48" fill="white" transform="translate(2958.64 648.752) rotate(20.3101)"/>
</clipPath>
<clipPath id="clip2_6840_6494">
<rect width="48" height="48" fill="white" transform="translate(2958.64 4626.75) rotate(20.3101)"/>
</clipPath>
<clipPath id="clip3_6840_6494">
<rect width="40" height="40" fill="white" transform="translate(2007.11 2177.11)"/>
</clipPath>
</defs>
</svg>
