<svg width="807" height="36" viewBox="0 0 807 36" fill="none" xmlns="http://www.w3.org/2000/svg">
<g opacity="0.3">
<rect opacity="0.3" x="55" y="16" width="752" height="4" rx="2" fill="white"/>
<circle cx="114" cy="18" r="9" fill="white"/>
</g>
<g opacity="0.3">
<circle cx="18" cy="18" r="17.8291" fill="white" fill-opacity="0.1" stroke="white" stroke-width="0.341772"/>
<path d="M22.4278 18.8589C22.3849 18.903 22.2229 19.0913 22.0719 19.2463C21.187 20.2207 18.8786 21.8156 17.6703 22.3025C17.4868 22.3807 17.0229 22.5463 16.7751 22.5569C16.5376 22.5569 16.3112 22.5022 16.0951 22.3913C15.8258 22.2364 15.6097 21.9926 15.4914 21.7047C15.4152 21.505 15.2968 20.9073 15.2968 20.8966C15.1784 20.2427 15.1133 19.1802 15.1133 18.006C15.1133 16.8873 15.1784 15.868 15.2753 15.2042C15.2864 15.1936 15.4048 14.4508 15.5343 14.1964C15.7718 13.7316 16.2357 13.443 16.7322 13.443L16.7751 13.443C17.0984 13.4544 17.7784 13.743 17.7784 13.7536C18.9215 14.2412 21.1767 15.7579 22.083 16.7657C22.083 16.7657 22.3383 17.0247 22.4493 17.1865C22.6224 17.4189 22.7082 17.7068 22.7082 17.9946C22.7082 18.3159 22.6113 18.6151 22.4278 18.8589Z" fill="white"/>
</g>
</svg>
