<?xml version="1.0" encoding="utf-8"?><svg viewBox="0 0 576 512" xmlns="http://www.w3.org/2000/svg" xmlns:xlink="http://www.w3.org/1999/xlink"><style>:root>svg{display:none}:root>svg:target{display:block}</style><svg viewBox="0 0 32 32" id="icon-circle-arrow-left" xmlns="http://www.w3.org/2000/svg"><path d="M16 32c8.837 0 16-7.163 16-16S24.837 0 16 0 0 7.163 0 16s7.163 16 16 16zm0-29c7.18 0 13 5.82 13 13s-5.82 13-13 13S3 23.18 3 16 8.82 3 16 3z"/><path d="M20.914 9.914l-2.829-2.829-8.914 8.914 8.914 8.914 2.828-2.828-6.086-6.086z"/></svg><svg viewBox="0 0 32 32" id="icon-circle-arrow-right" xmlns="http://www.w3.org/2000/svg"><path d="M16 0C7.163 0 0 7.163 0 16s7.163 16 16 16 16-7.163 16-16S24.837 0 16 0zm0 29C8.82 29 3 23.18 3 16S8.82 3 16 3s13 5.82 13 13-5.82 13-13 13z"/><path d="M11.086 22.086l2.829 2.829 8.914-8.914-8.914-8.914-2.828 2.828 6.086 6.086z"/></svg><svg viewBox="0 0 32 32" id="icon-clock" xmlns="http://www.w3.org/2000/svg"><path d="M20.586 23.414L14 16.828V8h4v7.172l5.414 5.414zM16 0C7.163 0 0 7.163 0 16s7.163 16 16 16 16-7.163 16-16S24.837 0 16 0zm0 28C9.373 28 4 22.627 4 16S9.373 4 16 4s12 5.373 12 12-5.373 12-12 12z"/></svg><svg viewBox="0 0 264 512" id="icon-facebook" xmlns="http://www.w3.org/2000/svg"><path d="M76.7 512V283H0v-91h76.7v-71.7C76.7 42.4 124.3 0 193.8 0c33.3 0 61.9 2.5 70.2 3.6V85h-48.2c-37.8 0-45.1 18-45.1 44.3V192H256l-11.7 91h-73.6v229"/></svg><svg viewBox="0 0 32 32" id="icon-instagram" xmlns="http://www.w3.org/2000/svg"><path d="M16 2.881c4.275 0 4.781.019 6.462.094 1.563.069 2.406.331 2.969.55a4.952 4.952 0 011.837 1.194 5.015 5.015 0 011.2 1.838c.219.563.481 1.412.55 2.969.075 1.688.094 2.194.094 6.463s-.019 4.781-.094 6.463c-.069 1.563-.331 2.406-.55 2.969a4.94 4.94 0 01-1.194 1.837 5.02 5.02 0 01-1.837 1.2c-.563.219-1.413.481-2.969.55-1.688.075-2.194.094-6.463.094s-4.781-.019-6.463-.094c-1.563-.069-2.406-.331-2.969-.55a4.952 4.952 0 01-1.838-1.194 5.02 5.02 0 01-1.2-1.837c-.219-.563-.481-1.413-.55-2.969-.075-1.688-.094-2.194-.094-6.463s.019-4.781.094-6.463c.069-1.563.331-2.406.55-2.969a4.964 4.964 0 011.194-1.838 5.015 5.015 0 011.838-1.2c.563-.219 1.412-.481 2.969-.55 1.681-.075 2.188-.094 6.463-.094zM16 0c-4.344 0-4.887.019-6.594.094-1.7.075-2.869.35-3.881.744-1.056.412-1.95.956-2.837 1.85a7.833 7.833 0 00-1.85 2.831C.444 6.538.169 7.7.094 9.4.019 11.113 0 11.656 0 16s.019 4.887.094 6.594c.075 1.7.35 2.869.744 3.881.413 1.056.956 1.95 1.85 2.837a7.82 7.82 0 002.831 1.844c1.019.394 2.181.669 3.881.744 1.706.075 2.25.094 6.594.094s4.888-.019 6.594-.094c1.7-.075 2.869-.35 3.881-.744 1.05-.406 1.944-.956 2.831-1.844s1.438-1.781 1.844-2.831c.394-1.019.669-2.181.744-3.881.075-1.706.094-2.25.094-6.594s-.019-4.887-.094-6.594c-.075-1.7-.35-2.869-.744-3.881a7.506 7.506 0 00-1.831-2.844A7.82 7.82 0 0026.482.843C25.463.449 24.301.174 22.601.099c-1.712-.081-2.256-.1-6.6-.1z"/><path d="M16 7.781c-4.537 0-8.219 3.681-8.219 8.219s3.681 8.219 8.219 8.219 8.219-3.681 8.219-8.219A8.221 8.221 0 0016 7.781zm0 13.55a5.331 5.331 0 110-10.663 5.331 5.331 0 010 10.663zM26.462 7.456a1.919 1.919 0 11-3.838 0 1.919 1.919 0 013.838 0z"/></svg><svg viewBox="0 0 32 32" id="icon-location" xmlns="http://www.w3.org/2000/svg"><path d="M16 0C10.477 0 6 4.477 6 10c0 10 10 22 10 22s10-12 10-22c0-5.523-4.477-10-10-10zm0 16a6 6 0 110-12 6 6 0 010 12z"/></svg><svg viewBox="0 0 512 512" id="icon-mail" xmlns="http://www.w3.org/2000/svg"><path d="M502.3 190.8c3.9-3.1 9.7-.2 9.7 4.7V400c0 26.5-21.5 48-48 48H48c-26.5 0-48-21.5-48-48V195.6c0-5 5.7-7.8 9.7-4.7 22.4 17.4 52.1 39.5 154.1 113.6 21.1 15.4 56.7 47.8 92.2 47.6 35.7.3 72-32.8 92.3-47.6 102-74.1 131.6-96.3 154-113.7zM256 320c23.2.4 56.6-29.2 73.4-41.4 132.7-96.3 142.8-104.7 173.4-128.7 5.8-4.5 9.2-11.5 9.2-18.9v-19c0-26.5-21.5-48-48-48H48C21.5 64 0 85.5 0 112v19c0 7.4 3.4 14.3 9.2 18.9 30.6 23.9 40.7 32.4 173.4 128.7 16.8 12.2 50.2 41.8 73.4 41.4z"/></svg><svg viewBox="0 0 320 512" id="icon-odnoklassniki" xmlns="http://www.w3.org/2000/svg"><path d="M275.1 334c-27.4 17.4-65.1 24.3-90 26.9l20.9 20.6 76.3 76.3c27.9 28.6-17.5 73.3-45.7 45.7-19.1-19.4-47.1-47.4-76.3-76.6L84 503.4c-28.2 27.5-73.6-17.6-45.4-45.7 19.4-19.4 47.1-47.4 76.3-76.3l20.6-20.6c-24.6-2.6-62.9-9.1-90.6-26.9-32.6-21-46.9-33.3-34.3-59 7.4-14.6 27.7-26.9 54.6-5.7 0 0 36.3 28.9 94.9 28.9s94.9-28.9 94.9-28.9c26.9-21.1 47.1-8.9 54.6 5.7 12.4 25.7-1.9 38-34.5 59.1zM30.3 129.7C30.3 58 88.6 0 160 0s129.7 58 129.7 129.7c0 71.4-58.3 129.4-129.7 129.4s-129.7-58-129.7-129.4zm66 0c0 35.1 28.6 63.7 63.7 63.7s63.7-28.6 63.7-63.7c0-35.4-28.6-64-63.7-64s-63.7 28.6-63.7 64z"/></svg><svg viewBox="0 0 32 32" id="icon-phone" xmlns="http://www.w3.org/2000/svg"><path d="M22 20c-2 2-2 4-4 4s-4-2-6-4-4-4-4-6 2-2 4-4-4-8-6-8-6 6-6 6c0 4 4.109 12.109 8 16s12 8 16 8c0 0 6-4 6-6s-6-8-8-6z"/></svg><svg viewBox="0 0 32 32" id="icon-skype" xmlns="http://www.w3.org/2000/svg"><path d="M13.3 1.169c-.05-.031-.106-.056-.156-.081-.056.012-.106.019-.162.031l.319.05zM1.15 13.156a1.84 1.84 0 00-.025.162c.031.05.05.1.081.15l-.056-.313zM30.837 18.831c.012-.056.019-.113.031-.169-.031-.05-.05-.1-.081-.15l.05.319zM18.5 30.719c.05.031.106.056.156.081a1.64 1.64 0 01.169-.025l-.325-.056z"/><path d="M30.869 18.663c-.012.056-.019.113-.031.169l-.056-.325c.031.056.056.106.087.156.163-.9.25-1.819.25-2.738a15.067 15.067 0 00-4.426-10.687 15.133 15.133 0 00-4.8-3.237A15.023 15.023 0 0016.012.813c-.963 0-1.925.088-2.863.269h-.006c.05.025.106.05.156.081l-.319-.05c.056-.012.106-.019.162-.031A8.99 8.99 0 008.948.032C6.56.032 4.31.963 2.623 2.651S.004 6.588.004 8.976c0 1.519.394 3.019 1.125 4.338a1.84 1.84 0 00.025-.162l.056.319c-.031-.05-.056-.1-.081-.15-.15.856-.225 1.731-.225 2.606a15.072 15.072 0 004.425 10.681 15.1 15.1 0 004.806 3.238 15.023 15.023 0 008.525.95c-.05-.031-.1-.056-.156-.081l.325.056a1.64 1.64 0 01-.169.025 8.956 8.956 0 004.4 1.163c2.387 0 4.637-.931 6.325-2.619s2.619-3.938 2.619-6.325a9.07 9.07 0 00-1.137-4.35zm-14.8 6.518c-5.369 0-7.769-2.637-7.769-4.619 0-1.012.75-1.725 1.781-1.725 2.3 0 1.7 3.3 5.988 3.3 2.194 0 3.406-1.194 3.406-2.413 0-.731-.363-1.544-1.806-1.9l-4.775-1.194c-3.844-.963-4.544-3.044-4.544-5 0-4.056 3.819-5.581 7.406-5.581 3.306 0 7.2 1.825 7.2 4.263 0 1.044-.906 1.65-1.938 1.65-1.962 0-1.6-2.713-5.55-2.713-1.963 0-3.044.887-3.044 2.156s1.55 1.675 2.894 1.981l3.538.787c3.869.863 4.85 3.125 4.85 5.25 0 3.294-2.531 5.756-7.637 5.756z"/></svg><svg viewBox="0 0 300 300" id="icon-telegram" xmlns="http://www.w3.org/2000/svg"><path d="M5.299 144.645l69.126 25.8 26.756 86.047c1.712 5.511 8.451 7.548 12.924 3.891l38.532-31.412a11.496 11.496 0 0114.013-.391l69.498 50.457c4.785 3.478 11.564.856 12.764-4.926L299.823 29.22c1.31-6.316-4.896-11.585-10.91-9.259L5.218 129.402c-7.001 2.7-6.94 12.612.081 15.243zm91.57 12.066l135.098-83.207c2.428-1.491 4.926 1.792 2.841 3.726L123.313 180.87a23.112 23.112 0 00-7.163 13.829l-3.798 28.146c-.503 3.758-5.782 4.131-6.819.494l-14.607-51.325c-1.673-5.854.765-12.107 5.943-15.303z"/></svg><svg viewBox="0 0 32 32" id="icon-twitter" xmlns="http://www.w3.org/2000/svg"><path d="M32 7.075a12.941 12.941 0 01-3.769 1.031 6.601 6.601 0 002.887-3.631 13.21 13.21 0 01-4.169 1.594A6.565 6.565 0 0022.155 4a6.563 6.563 0 00-6.563 6.563c0 .512.056 1.012.169 1.494A18.635 18.635 0 012.23 5.195a6.56 6.56 0 00-.887 3.3 6.557 6.557 0 002.919 5.463 6.565 6.565 0 01-2.975-.819v.081a6.565 6.565 0 005.269 6.437 6.574 6.574 0 01-2.968.112 6.588 6.588 0 006.131 4.563 13.17 13.17 0 01-9.725 2.719 18.568 18.568 0 0010.069 2.95c12.075 0 18.681-10.006 18.681-18.681 0-.287-.006-.569-.019-.85A13.216 13.216 0 0032 7.076z"/></svg><svg viewBox="0 0 576 512" id="icon-vk" xmlns="http://www.w3.org/2000/svg"><path d="M545 117.7c3.7-12.5 0-21.7-17.8-21.7h-58.9c-15 0-21.9 7.9-25.6 16.7 0 0-30 73.1-72.4 120.5-13.7 13.7-20 18.1-27.5 18.1-3.7 0-9.4-4.4-9.4-16.9V117.7c0-15-4.2-21.7-16.6-21.7h-92.6c-9.4 0-15 7-15 13.5 0 14.2 21.2 17.5 23.4 57.5v86.8c0 19-3.4 22.5-10.9 22.5-20 0-68.6-73.4-97.4-157.4-5.8-16.3-11.5-22.9-26.6-22.9H38.8c-16.8 0-20.2 7.9-20.2 16.7 0 15.6 20 93.1 93.1 195.5C160.4 378.1 229 416 291.4 416c37.5 0 42.1-8.4 42.1-22.9 0-66.8-3.4-73.1 15.4-73.1 8.7 0 23.7 4.4 58.7 38.1 40 40 46.6 57.9 69 57.9h58.9c16.8 0 25.3-8.4 20.4-25-11.2-34.9-86.9-106.7-90.3-111.5-8.7-11.2-6.2-16.2 0-26.2.1-.1 72-101.3 79.4-135.6z"/></svg><svg viewBox="0 0 32 32" id="icon-whatsapp" xmlns="http://www.w3.org/2000/svg"><path d="M27.281 4.65C24.287 1.65 20.306 0 16.062 0 7.324 0 .212 7.112.212 15.856c0 2.794.731 5.525 2.119 7.925L.081 32l8.406-2.206a15.858 15.858 0 007.575 1.931h.006c8.738 0 15.856-7.113 15.856-15.856 0-4.238-1.65-8.219-4.644-11.219zm-11.212 24.4a13.17 13.17 0 01-6.713-1.837l-.481-.288-4.987 1.306 1.331-4.863-.313-.5a13.086 13.086 0 01-2.019-7.012c0-7.269 5.912-13.181 13.188-13.181 3.519 0 6.831 1.375 9.319 3.862a13.108 13.108 0 013.856 9.325c-.006 7.275-5.919 13.188-13.181 13.188zm7.225-9.875c-.394-.2-2.344-1.156-2.706-1.288s-.625-.2-.894.2c-.262.394-1.025 1.288-1.256 1.556-.231.262-.462.3-.856.1s-1.675-.619-3.188-1.969c-1.175-1.05-1.975-2.35-2.206-2.744s-.025-.613.175-.806c.181-.175.394-.463.594-.694s.262-.394.394-.662c.131-.262.069-.494-.031-.694s-.894-2.15-1.219-2.944c-.319-.775-.65-.669-.894-.681-.231-.012-.494-.012-.756-.012s-.694.1-1.056.494c-.363.394-1.387 1.356-1.387 3.306s1.419 3.831 1.619 4.1c.2.262 2.794 4.269 6.769 5.981.944.406 1.681.65 2.256.837.95.3 1.813.256 2.494.156.762-.113 2.344-.956 2.675-1.881s.331-1.719.231-1.881c-.094-.175-.356-.275-.756-.475z"/></svg><svg viewBox="0 0 32 32" id="icon-youtube" xmlns="http://www.w3.org/2000/svg"><path d="M31.681 9.6s-.313-2.206-1.275-3.175C29.187 5.15 27.825 5.144 27.2 5.069c-4.475-.325-11.194-.325-11.194-.325h-.012s-6.719 0-11.194.325c-.625.075-1.987.081-3.206 1.356C.631 7.394.325 9.6.325 9.6s-.319 2.588-.319 5.181v2.425c0 2.587.319 5.181.319 5.181s.313 2.206 1.269 3.175c1.219 1.275 2.819 1.231 3.531 1.369 2.563.244 10.881.319 10.881.319s6.725-.012 11.2-.331c.625-.075 1.988-.081 3.206-1.356.962-.969 1.275-3.175 1.275-3.175s.319-2.587.319-5.181v-2.425c-.006-2.588-.325-5.181-.325-5.181zM12.694 20.15v-8.994l8.644 4.513-8.644 4.481z"/></svg><svg viewBox="0 0 40 40" id="icon-zen" xmlns="http://www.w3.org/2000/svg"><path d="M17.29 39.81a19.44 19.44 0 01-5.54-1.59l13.14-10.14 3.05 3.51-10.65 8.22zM21.66.07a19.88 19.88 0 015.83 1.38L16 11l-3-3.54zM13 22l12-9 3 4-12 9-3-4z"/><path d="M13 7.44l14.89 4.87v4.43L13 11.87V7.44zm0 14.89l14.91 4.87v4.43L13 26.76z"/></svg><svg viewBox="0 0 40 40" id="icon-zen--color" xmlns="http://www.w3.org/2000/svg"><path fill="#2497b2" d="M17.29 39.81a19.44 19.44 0 01-5.54-1.59l13.14-10.14 3.05 3.51-10.65 8.22zM21.66.07a19.88 19.88 0 015.83 1.38L16 11l-3-3.54z"/><path fill="#51bae6" d="M13 22l12-9 3 4-12 9-3-4z"/><path fill="#fff" d="M13 7.44l14.89 4.87v4.43L13 11.87V7.44zm0 14.89l14.91 4.87v4.43L13 26.76z"/></svg></svg>